<?xml version="1.0" standalone="no"?><!DOCTYPE svg PUBLIC "-//W3C//DTD SVG 1.1//EN"
        "http://www.w3.org/Graphics/SVG/1.1/DTD/svg11.dtd">
<svg class="icon" width="200px" height="200.00px" viewBox="0 0 1024 1024" version="1.1"
     xmlns="http://www.w3.org/2000/svg">
    <path d="M552.203 725.056c0.846 0.088 3.811-1.507 8.256-4.207a241.776 241.776 0 0 1-46.76 4.865c12.784 0.075 25.517-0.12 38.504-0.658z m-68.006 0c7.79 0.317 15.457 0.488 23.1 0.596a242.1 242.1 0 0 1-26.411-1.933c1.695 0.908 2.836 1.387 3.311 1.337z"
          fill="#F8F7F8"/>
    <path d="M480.89 723.72a242.101 242.101 0 0 0 26.412 1.932c2.136 0.03 4.273 0.054 6.402 0.067a241.776 241.776 0 0 0 46.759-4.865c23.013-13.946 85.891-57.297 102.794-48.659a242.271 242.271 0 0 0 42.61-44.543c-3.465 0.342-7.006 0.608-10.65 0.77-2.108 0.088-4.245 0.15-6.406 0.176 34.825-50.533 52.536-112.753 42.027-194.105l-216.535 1.062h-2.594v-0.012l-215.71-1.05C285.49 515.84 303.2 578.065 338.03 628.598a202.68 202.68 0 0 1-20.472-1.267 242.434 242.434 0 0 0 51.516 51.579c3.203-29.886 92.727 34.592 111.816 44.81z"
          fill="#FCE9EA"/>
    <path d="M634.804 747.657l-0.662 1.012-115.944-0.117-115.823 0.117c-1.116-1.678-2.153-3.278-3.203-4.894-88.524 31.164-153.585 98.908-179.439 188.769C302.56 990.182 403.216 1024 511.825 1024c108.6 0 209.283-33.843 292.125-91.515-24.804-86.312-85.858-152.16-169.146-184.828z"
          fill="#C1E5F9"/>
    <path d="M518.198 748.552l115.944 0.117 0.662-1.012c33.089-50.095 37.766-70.693 28.449-75.462-16.903-8.638-79.777 34.713-102.794 48.659-4.445 2.695-7.41 4.294-8.256 4.207a812.168 812.168 0 0 1-44.905 0.591 836.61 836.61 0 0 1-23.1-0.596c-0.476 0.05-1.617-0.433-3.308-1.337-19.09-10.217-108.613-74.695-111.82-44.814-1.05 9.776 7.164 29.674 30.102 64.87a591.793 591.793 0 0 0 3.203 4.894l115.823-0.117z"
          fill="#FEFEFE"/>
    <path d="M295.999 434.489l215.71 1.05v0.012h2.594l216.535-1.062c10.509 81.347-7.202 143.572-42.027 194.104a194.213 194.213 0 0 0 17.056-0.945c118.868-11.754 133.85-131.326 92.19-241.522-9.46 5.37-17.311 5.844-20.344-2.407l-17.24-47.226-17.352-47.225-49.47-9.21-49.359-9.209c-17.544-3.278-3.199-31.893 16.486-54.502-45.163-23.804-96.442-28.315-148.836-0.754C281.32 94.297 66.527 598.675 317.554 627.327a202.68 202.68 0 0 0 20.472 1.266C303.201 578.061 285.49 515.84 296 434.49zM743.12 289.268l1.129 0.208a296.107 296.107 0 0 0-1.983-2.54l0.854 2.332z"
          fill="#A1A1A1"/>
    <path d="M743.121 289.268l17.353 47.225 17.24 47.226c3.032 8.251 10.883 7.776 20.343 2.407 27.748-15.753 69.363-73.808 44.005-78.56l-49.47-9.093-48.338-9.001-1.133-0.204z m-98.824-18.419l49.358 9.21 49.47 9.209-0.85-2.333-16.39-44.893-17.356-47.225c-5.794-15.828-29.153 0.175-47.746 21.53-19.685 22.609-34.03 51.224-16.486 54.502z"
          fill="#C1E5F9"/>
</svg>