<?xml version="1.0" standalone="no"?><!DOCTYPE svg PUBLIC "-//W3C//DTD SVG 1.1//EN"
        "http://www.w3.org/Graphics/SVG/1.1/DTD/svg11.dtd">
<svg class="icon" width="200px" height="200.00px" viewBox="0 0 1024 1024" version="1.1"
     xmlns="http://www.w3.org/2000/svg">
    <path d="M957.195501 314.74596199c0 15.286148-5.878894 29.522384-16.564257 40.16681501L550.240953 744.61029c-1.39272 1.425466-2.577708 2.537799-3.846608 3.449565l-2.905166 2.304486c-11.416004 11.362792-24.848944 16.945951-39.068807 16.945951-14.47568899 0-28.010961-5.708002-38.11099301-16.056698l-388.21678899-392.376529c-10.46739899-10.612709-16.236799-24.785499-16.236799-39.892569 0-14.77244801 5.599532-28.726252 15.753799-39.287795 10.18599-10.497075 24.390503-16.538675 38.95215-16.538675 14.382569 0 28.009937 5.722328 38.366819 16.142655L505.098823 633.26741299 864.526939 274.782785c10.30981-10.249435 23.781636-15.909341 37.994336-15.90934101 14.889105 0 28.859281 6.05081 39.333844 16.99916301C951.744349 286.29191 957.19550101 300.121893 957.195501 314.74596199z"/>
</svg>