<?xml version="1.0" standalone="no"?><!DOCTYPE svg PUBLIC "-//W3C//DTD SVG 1.1//EN"
        "http://www.w3.org/Graphics/SVG/1.1/DTD/svg11.dtd">
<svg class="icon" width="200px" height="200.00px" viewBox="0 0 1024 1024" version="1.1"
     xmlns="http://www.w3.org/2000/svg">
    <path d="M512 960A448 448 0 1 0 512 64a448 448 0 0 0 0 896z m0 64A512 512 0 1 1 512 0a512 512 0 0 1 0 1024z m4.48-832a81.28 81.28 0 0 1 80.256 94.72l-42.88 257.728a37.76 37.76 0 0 1-74.56 0L436.288 286.72A81.28 81.28 0 0 1 516.544 192z m1.92 640a96 96 0 1 1 0-192 96 96 0 0 1 0 192z"
          fill="#FF8484"/>
</svg>