<?xml version="1.0" standalone="no"?><!DOCTYPE svg PUBLIC "-//W3C//DTD SVG 1.1//EN"
        "http://www.w3.org/Graphics/SVG/1.1/DTD/svg11.dtd">
<svg class="icon" width="200px" height="200.00px" viewBox="0 0 1024 1024" version="1.1"
     xmlns="http://www.w3.org/2000/svg">
    <path d="M422.462676 327.041471h-46.150095v46.150095h-46.150095v46.150095h46.150095v46.150095h46.150095v-46.150095h46.150095v-46.150095h-46.150095v-46.150095z m386.494254 134.664135c-38.27081 0-69.173978 31.005496-69.173978 69.173978s31.005496 69.173978 69.173978 69.173979c38.27081 0 69.173978-31.005496 69.173978-69.173979 0.102328-38.168482-30.903168-69.173978-69.173978-69.173978z m0 0"/>
    <path d="M578.206455 534.665734l212.638354-225.736385c15.963226-16.474868 0.409313-42.568602-2.353553-43.591885l0.409314-0.409314C734.052563 201.586889 623.640252 142.441091 514.762866 142.441091c-203.838113 0-369.200759 165.260318-369.200759 369.20076 0 203.838113 165.260318 369.200759 369.200759 369.200759 98.235235 0 187.158589-38.577796 253.262716-101.10043 7.060658-7.879285 22.819227-21.488958 11.665434-38.577795L578.206455 534.665734z m-63.443589 300.026781c-178.460678 0-323.050665-144.589987-323.050665-323.050664 0-178.460678 144.589987-323.050665 323.050665-323.050665 91.379235 0 173.446587 38.475467 232.080743 99.463176L514.762866 536.20066l212.638353 218.061756c-56.792245 49.936245-130.980314 80.430099-212.638353 80.430099z m0 0"/>
</svg>