<?xml version="1.0" standalone="no"?><!DOCTYPE svg PUBLIC "-//W3C//DTD SVG 1.1//EN"
        "http://www.w3.org/Graphics/SVG/1.1/DTD/svg11.dtd">
<svg class="icon" width="200px" height="188.76px" viewBox="0 0 1085 1024" version="1.1"
     xmlns="http://www.w3.org/2000/svg">
    <path d="M854.622041 57.469388a1024 1024 0 0 0-125.387755-39.497143A571.245714 571.245714 0 0 0 598.413061 0C637.387755 22.151837 676.257959 40.96 715.546122 59.036735S794.122449 94.040816 834.66449 109.087347s80.875102 29.779592 122.357551 42.527347a937.691429 937.691429 0 0 0 127.89551 30.72 713.038367 713.038367 0 0 0-111.386122-70.844082A1108.741224 1108.741224 0 0 0 854.622041 57.469388zM379.924898 8.568163c-43.049796 5.12-85.681633 12.016327-128 20.062041S167.183673 46.18449 125.387755 56.737959 41.795918 78.994286 0 94.040816a571.141224 571.141224 0 0 0 132.284082 5.53796 1024 1024 0 0 0 129.985306-16.718368 1108.532245 1108.532245 0 0 0 126.746122-31.346939A713.038367 713.038367 0 0 0 511.268571 1.149388a937.691429 937.691429 0 0 0-131.343673 7.418775z"
          fill="#272425"/>
    <path d="M945.110204 134.164898A55.797551 55.797551 0 0 1 961.306122 170.213878a99.787755 99.787755 0 0 1-4.70204 39.497142 131.239184 131.239184 0 0 1-44.408164 63.947756 128.20898 128.20898 0 0 1-71.784489 26.435918 250.77551 250.77551 0 0 1-78.367347-7.523265 134.478367 134.478367 0 0 1-64.574694-40.751021 299.990204 299.990204 0 0 1-41.795919-68.231837 92.26449 92.26449 0 0 1-3.343673-75.441632 215.562449 215.562449 0 0 1 43.049796-69.172245 190.693878 190.693878 0 0 0-52.244898 65.515102 117.446531 117.446531 0 0 0-10.44898 41.795918 96.444082 96.444082 0 0 0 8.672653 43.467755 287.660408 287.660408 0 0 0 41.795919 74.292245 146.285714 146.285714 0 0 0 33.123265 29.257143 161.541224 161.541224 0 0 0 40.228571 18.494694 261.955918 261.955918 0 0 0 85.995102 7.627755 140.225306 140.225306 0 0 0 80.457143-33.436735 136.881633 136.881633 0 0 0 43.990204-73.665306 103.758367 103.758367 0 0 0 0.626939-42.840816 55.693061 55.693061 0 0 0-22.465306-35.317551zM432.692245 47.438367a205.113469 205.113469 0 0 1 25.077551 73.142857A87.24898 87.24898 0 0 1 438.857143 189.33551a284.734694 284.734694 0 0 1-53.394286 54.125714 127.059592 127.059592 0 0 1-68.022857 24.032654 237.191837 237.191837 0 0 1-74.292245-9.090613A121.208163 121.208163 0 0 1 182.439184 219.428571a124.342857 124.342857 0 0 1-27.689796-68.231836 94.040816 94.040816 0 0 1 3.761632-37.407347A52.871837 52.871837 0 0 1 181.289796 83.591837a52.767347 52.767347 0 0 0-28.003265 27.898775 98.533878 98.533878 0 0 0-8.568164 39.810612 129.880816 129.880816 0 0 0 25.182041 77.635919 133.22449 133.22449 0 0 0 67.500408 47.960816 248.685714 248.685714 0 0 0 81.293062 11.075919 144.822857 144.822857 0 0 0 78.367346-29.048164A272.404898 272.404898 0 0 0 451.395918 198.530612a91.742041 91.742041 0 0 0 17.136327-38.556734 111.699592 111.699592 0 0 0-0.940408-41.795919 180.244898 180.244898 0 0 0-34.899592-70.739592z"
          fill="#272425"/>
    <path d="M192.039546 145.305342a48.169796 55.588571 68.69 1 0 103.575719-40.403312 48.169796 55.588571 68.69 1 0-103.575719 40.403312Z"
          fill="#272425"/>
    <path d="M824.818349 300.367472a58.618776 50.782041 12.2 1 0 21.463009-99.270347 58.618776 50.782041 12.2 1 0-21.463009 99.270347Z"
          fill="#272425"/>
    <path d="M508.133878 392.045714a71.366531 71.366531 0 0 1 41.795918 8.463674 212.114286 212.114286 0 0 1 41.273469 27.167347 133.955918 133.955918 0 0 0-32.809796-40.228572 82.755918 82.755918 0 0 0-52.244898-20.27102 65.933061 65.933061 0 0 0-29.779591 7.627755 90.279184 90.279184 0 0 0-23.614694 17.763265A161.645714 161.645714 0 0 0 422.870204 438.857143a86.413061 86.413061 0 0 0-7.418775 29.570612 65.828571 65.828571 0 0 0 6.060408 31.346939 87.457959 87.457959 0 0 0 42.736326 39.601633A167.183673 167.183673 0 0 0 515.657143 553.795918a172.826122 172.826122 0 0 0 26.122449 0.731429 73.142857 73.142857 0 0 0 25.39102-5.01551 102.19102 102.19102 0 0 1-24.555102-3.761633 219.428571 219.428571 0 0 1-23.405714-7.209796 198.530612 198.530612 0 0 1-42.631837-20.897959A68.963265 68.963265 0 0 1 449.306122 487.758367a46.08 46.08 0 0 1 2.821225-36.153469c12.538776-27.794286 30.302041-55.379592 56.006531-59.559184z"
          fill="#272425"/>
    <path d="M783.673469 730.592653s-75.650612-9.508571-70.739591 31.346939-46.915918 129.671837-46.915919 129.671837a410.958367 410.958367 0 0 0 51.40898 70.635102A147.226122 147.226122 0 0 0 772.075102 1003.102041a65.515102 65.515102 0 0 0 65.097143-7.836735 73.142857 73.142857 0 0 0 20.27102-32.914286c13.479184-40.019592 7.209796-84.427755-8.568163-123.611428A537.913469 537.913469 0 0 0 783.673469 730.592653z"
          fill="#DB6368"/>
    <path d="M859.115102 837.903673A431.960816 431.960816 0 0 0 783.673469 730.592653c20.897959 37.720816 43.676735 74.919184 56.73796 114.938776s15.777959 81.92 1.253877 117.44653A42.945306 42.945306 0 0 1 806.870204 992.653061a58.096327 58.096327 0 0 1-25.182041-2.403265 93.413878 93.413878 0 0 1-24.032653-12.434286 239.699592 239.699592 0 0 1-42.840816-42.422857 426.736327 426.736327 0 0 1-32.496327-44.303673c-1.358367 2.507755-2.612245 5.12-3.970612 7.627755v-14.210613l3.970612 6.269388c7.732245-14.837551 14.315102-29.884082 20.89796-45.244081a275.539592 275.539592 0 0 0 16.718367-56.63347 110.445714 110.445714 0 0 0 1.567347-15.673469 39.079184 39.079184 0 0 0 0-8.045714L720.979592 758.595918a16.927347 16.927347 0 0 1 9.717551-17.449796 74.919184 74.919184 0 0 1 25.49551-8.150204 174.28898 174.28898 0 0 1 28.212245-2.298775 153.6 153.6 0 0 0-28.630204-3.448163 79.516735 79.516735 0 0 0-29.779592 4.388571 63.320816 63.320816 0 0 0-7.314286 3.970612 30.093061 30.093061 0 0 0-6.373877 6.164898l-2.612245 3.866123a24.346122 24.346122 0 0 0-1.671837 4.284081 31.346939 31.346939 0 0 0-1.253877 4.493062v11.807346a33.645714 33.645714 0 0 1-0.522449 6.164898 94.040816 94.040816 0 0 1-2.716735 12.747756 329.560816 329.560816 0 0 1-20.897959 50.78204c-8.254694 16.613878-17.658776 32.914286-26.958368 48.692245a13.688163 13.688163 0 0 0 0 13.479184 406.674286 406.674286 0 0 0 36.675919 55.902041 268.016327 268.016327 0 0 0 46.915918 49.110204 97.28 97.28 0 0 0 71.99347 19.853061 70.321633 70.321633 0 0 0 37.093877-17.136326 82.964898 82.964898 0 0 0 20.897959-32.914286 156.734694 156.734694 0 0 0 7.941225-69.694694 210.755918 210.755918 0 0 0-18.076735-65.306123z"
          fill="#272425"/>
    <path d="M678.347755 898.612245c1.358367-2.507755 2.716735-5.12 3.970612-7.627755l-3.970612-6.269388z"
          fill="#272425"/>
    <path d="M725.263673 772.284082a16.091429 16.091429 0 0 0-25.913469 19.017142l70.530612 96.130613-42.527347-111.386123a16.613878 16.613878 0 0 0-2.089796-3.761632z"
          fill="#272425"/>
    <path d="M843.337143 585.874286a49.632653 49.632653 0 0 0-15.36 41.795918c2.821224 16.509388 14.001633 27.480816 17.554286 38.138776a24.555102 24.555102 0 0 1-7.732245 28.003265 67.395918 67.395918 0 0 1-31.869388 15.046531c-11.807347 2.089796-25.913469 2.403265-40.124082 4.284081a88.816327 88.816327 0 0 0-43.990204 16.091429 64.052245 64.052245 0 0 0-16.509388 19.226122 94.981224 94.981224 0 0 0-8.777142 22.151837c-3.866122 14.628571-5.12 28.630204-7.732245 41.168979a91.846531 91.846531 0 0 1-12.747755 33.332245 96.444082 96.444082 0 0 1-24.137143 25.91347A88.398367 88.398367 0 0 1 586.187755 888.163265a94.772245 94.772245 0 0 1-59.663673-33.854694 160.078367 160.078367 0 0 1-18.599184-32.391836A154.853878 154.853878 0 0 0 483.787755 783.673469a77.635918 77.635918 0 0 0-44.199184-23.823673 117.028571 117.028571 0 0 0-46.602449 2.925714c-28.525714 7.000816-53.394286 17.867755-78.367346 23.092245a106.893061 106.893061 0 0 1-35.84 1.671837 72.202449 72.202449 0 0 1-31.346939-13.374694A101.355102 101.355102 0 0 1 208.979592 712.620408a120.267755 120.267755 0 0 1 0-38.034286 175.438367 175.438367 0 0 0 1.149388-42.945306 74.187755 74.187755 0 0 0-19.644082-40.019592 99.265306 99.265306 0 0 0-36.153469-23.301224A246.386939 246.386939 0 0 0 72.515918 553.795918a267.911837 267.911837 0 0 1 77.949388 22.047347 94.040816 94.040816 0 0 1 30.61551 23.405715 60.186122 60.186122 0 0 1 13.374694 33.645714 168.437551 168.437551 0 0 1-3.657143 38.765714c-1.149388 6.791837-2.194286 13.897143-2.716734 20.897959v11.284898c0 3.761633 0 7.523265 0.940408 11.284898a121.730612 121.730612 0 0 0 43.049796 77.531429 98.011429 98.011429 0 0 0 41.795918 19.957551 129.462857 129.462857 0 0 0 45.766531-0.522449c28.839184-5.32898 54.857143-15.882449 79.725714-20.897959a94.667755 94.667755 0 0 1 34.795102-1.985306A46.497959 46.497959 0 0 1 460.90449 804.571429a127.373061 127.373061 0 0 1 18.599183 31.346938A188.081633 188.081633 0 0 0 501.55102 874.266122 125.387755 125.387755 0 0 0 581.903673 919.510204a117.86449 117.86449 0 0 0 88.502858-24.241633 126.014694 126.014694 0 0 0 30.61551-34.795102 122.148571 122.148571 0 0 0 9.92653-20.897959 142.942041 142.942041 0 0 0 5.53796-22.151837c4.597551-28.316735 5.01551-55.066122 20.897959-68.231836a65.724082 65.724082 0 0 1 31.869388-12.643266c12.852245-2.403265 26.226939-3.030204 41.273469-6.687347a86.308571 86.308571 0 0 0 40.124082-22.360816 46.497959 46.497959 0 0 0 12.120816-21.838367 39.706122 39.706122 0 0 0-2.821225-25.182041c-7.000816-14.419592-17.449796-23.301224-19.853061-34.377143a40.124082 40.124082 0 0 1 9.717551-33.436735 65.306122 65.306122 0 0 1 32.600817-20.897959 220.577959 220.577959 0 0 1 40.019591-7.627755 222.772245 222.772245 0 0 0-41.273469 2.925714 71.88898 71.88898 0 0 0-37.825306 18.808164z"
          fill="#272425"/>
</svg>