<?xml version="1.0" standalone="no"?><!DOCTYPE svg PUBLIC "-//W3C//DTD SVG 1.1//EN"
        "http://www.w3.org/Graphics/SVG/1.1/DTD/svg11.dtd">
<svg class="icon" width="200px" height="200.00px" viewBox="0 0 1024 1024" version="1.1"
     xmlns="http://www.w3.org/2000/svg">
    <path d="M724.484551 648.940118c-78.998624 0-142.965122-75.992199-142.965122-169.767085 0-93.646952 63.966498-169.575185 142.965122-169.575185 78.870691 0 142.837189 75.928233 142.837189 169.575185 0 93.774885-63.966498 169.767084-142.837189 169.767085M574.419148 736.702152c-3.006425 58.08158-101.642765 77.07963-112.069304 0-1.151397-15.991624 13.560897-77.271529 56.034652-77.271529 42.409788 0 58.977111 58.209513 56.034652 77.143596m-275.567671-87.698068c-78.870691 0-142.837189-75.928233-142.837189-169.703118 0-93.646952 63.966498-169.575185 142.837189-169.575185s142.837189 75.928233 142.837189 169.575185c0 93.774885-63.966498 169.767084-142.837189 169.767085M1023.463961 519.727793C1023.463961 484.226386 984.444397 0 505.974996 0 79.318457 0 0 432.861289 0 522.350419c0 323.094779 298.083879 372.604848 298.083879 372.604848-16.24749 86.482705 43.113419 146.995011 137.272103 103.881592 77.015663 52.900293 132.282717 4.093856 132.282717 4.093856 62.495268 34.541909 158.636914-7.100281 145.076017-108.870979 0 0 310.749245-63.070967 310.749245-374.267977"/>
</svg>