<?xml version="1.0" standalone="no"?><!DOCTYPE svg PUBLIC "-//W3C//DTD SVG 1.1//EN"
        "http://www.w3.org/Graphics/SVG/1.1/DTD/svg11.dtd">
<svg class="icon" width="200px" height="200.00px" viewBox="0 0 1024 1024" version="1.1"
     xmlns="http://www.w3.org/2000/svg">
    <path d="M512.6 513.8m-409.2 0a409.2 409.2 0 1 0 818.4 0 409.2 409.2 0 1 0-818.4 0Z" fill="#F9C56A"/>
    <path d="M535.7 490.7m-386.1 0a386.1 386.1 0 1 0 772.2 0 386.1 386.1 0 1 0-772.2 0Z" fill="#FAE06B"/>
    <path d="M513.5 69C267.9 69 68.7 268.1 68.7 513.8s199.2 444.8 444.8 444.8 444.8-199.2 444.8-444.8S759.2 69 513.5 69z m0 854c-226 0-409.2-183.2-409.2-409.2s183.2-409.2 409.2-409.2 409.2 183.2 409.2 409.2S739.5 923 513.5 923z"
          fill="#793A08"/>
    <path d="M383.8 294.4c-4.8-5.5-21.6-18.5-50.5-28.2-61.5-20.6-137-14.3-189.6-5.4l-5.3-31.6c201.7-34.1 267.3 41.3 270 44.5l-24.6 20.5zM646.2 296.3l-20.4-24.7c1.3-1.1 31.7-25.9 81.9-44.7 46.4-17.3 119.2-32.4 203.1-6.3l-9.5 30.6a275.4 275.4 0 0 0-100.5-12.1 288.9 288.9 0 0 0-80.8 17.5c-45.5 16.7-73.5 39.5-73.8 39.7z"
          fill="#793A08"/>
    <path d="M139 426a141 33 0 1 0 282 0 141 33 0 1 0-282 0Z" fill="#FFFFFF"/>
    <path d="M280 467c-38.3 0-74.3-3.5-101.5-9.9-32-7.5-47.5-17.6-47.5-31.1s15.5-23.6 47.5-31.1c27.2-6.4 63.3-9.9 101.5-9.9s74.3 3.5 101.5 9.9c31.9 7.5 47.5 17.7 47.5 31.1s-15.5 23.6-47.5 31.1c-27.2 6.4-63.2 9.9-101.5 9.9z m0-66c-36.4 0-70.7 3.3-96.6 9.2C150 417.8 147 425.9 147 426s3 8.2 36.4 15.8c25.9 5.9 60.2 9.2 96.6 9.2s70.7-3.3 96.6-9.2c32.9-7.5 36.3-15.5 36.4-15.8s-3.5-8.3-36.4-15.8c-25.9-5.9-60.2-9.2-96.6-9.2z"
          fill="#793A08"/>
    <path d="M876 406.5c0 74.8-79 124.5-135.5 124.5S605 481.3 605 406.5c0-49.5 60.7-56.5 135.5-56.5S876 359 876 406.5z"
          fill="#FFFFFF"/>
    <path d="M740.5 539c-30.3 0-66.1-13.8-93.6-36-32.2-26-49.9-60.3-49.9-96.5 0-26.4 15.2-44.7 45.2-54.4 27.4-8.9 65.1-10.1 98.3-10.1 45.5 0 75.9 3.3 98.3 10.8 30 10 45.2 28.1 45.2 53.7 0 36.3-17.6 70.6-49.5 96.5-27.8 22.6-62.9 36-94 36z m0-181c-32 0-68 1.1-93.3 9.3-23.3 7.5-34.2 20-34.2 39.2 0 31.3 15.6 61.2 44 84.1 24.7 20 56.7 32.4 83.5 32.4s59.3-12.4 83.9-32.4c28.1-22.8 43.6-52.7 43.6-84.1 0-34-38.1-48.5-127.5-48.5z"
          fill="#793A08"/>
    <path d="M304.1 623c11 105.6 100.3 188 208.9 188s197.9-82.4 208.9-188z" fill="#D44818"/>
    <path d="M513 819a218 218 0 0 1-216.8-195.2l-0.9-8.8h435.4l-0.9 8.8A218 218 0 0 1 513 819zM313.2 631a202 202 0 0 0 399.6 0z"
          fill="#793A08"/>
    <path d="M506 615h16v102h-16z" fill="#793A08"/>
    <path d="M817 577.2v-28.7a36.6 36.6 0 0 0-36.5-36.5 9.5 9.5 0 0 0-9.5 9.5V577a126.5 126.5 0 1 0 46 0.2z"
          fill="#FAE06B"/>
    <path d="M793.5 844C714.9 844 651 780.1 651 701.5a142.3 142.3 0 0 1 104-137.2v-42.8a25.5 25.5 0 0 1 25.5-25.5 52.5 52.5 0 0 1 52.5 52.5v16.1a142.6 142.6 0 0 1 103 136.9c0 78.6-63.9 142.5-142.5 142.5zM787 529.1v61.3l-13.2 2.4a110.5 110.5 0 1 0 40.2 0.2l-13-2.5v-42a20.5 20.5 0 0 0-14-19.4z"
          fill="#793A08"/>
</svg>