<?xml version="1.0" standalone="no"?><!DOCTYPE svg PUBLIC "-//W3C//DTD SVG 1.1//EN"
        "http://www.w3.org/Graphics/SVG/1.1/DTD/svg11.dtd">
<svg class="icon" width="200px" height="200.00px" viewBox="0 0 1024 1024" version="1.1"
     xmlns="http://www.w3.org/2000/svg">
    <path d="M512.01 334.628c-115.024 0-208.604 93.577-208.604 208.604 0 115.025 93.58 208.604 208.604 208.604s208.604-93.578 208.604-208.604c0-115.026-93.58-208.604-208.604-208.604z m0 382.745c-96.022 0-174.144-78.119-174.144-174.141 0-96.024 78.121-174.143 174.144-174.143 96.021 0 174.143 78.119 174.143 174.143-0.001 96.022-78.122 174.141-174.143 174.141zM810.54 331.956h-71.093c-9.518 0-17.232 7.714-17.232 17.231 0 9.516 7.715 17.231 17.232 17.231h71.093c9.517 0 17.229-7.716 17.229-17.231 0.001-9.518-7.712-17.231-17.229-17.231z"
          fill="#090204"/>
    <path d="M832.661 232.664h-84.673l-6.104-15.813c-10.477-26.832-20.27-42.861-32.745-53.598-13.221-11.377-29.018-16.451-51.22-16.451H367.132c-46.699 0-64.88 23.499-83.857 69.779l-6.213 16.082h-85.703c-60.184 0-109.147 48.961-109.147 109.145v426.243c0 60.186 48.964 109.146 109.147 109.146h641.303c60.185 0 109.147-48.961 109.147-109.146V341.808c0-60.183-48.963-109.144-109.148-109.144z m74.688 535.387c0 41.182-33.505 74.688-74.688 74.688H191.358c-41.182 0-74.687-33.506-74.687-74.688V341.808c0-41.181 33.505-74.682 74.687-74.682h109.34l14.526-37.632c18.095-44.069 28.618-48.231 51.907-48.231H657.92c22.998 0 34.854 4.553 51.84 48.061l14.592 37.803h108.31c41.183 0 74.688 33.501 74.688 74.682v426.242z"
          fill="#090204"/>
</svg>