<?xml version="1.0" standalone="no"?><!DOCTYPE svg PUBLIC "-//W3C//DTD SVG 1.1//EN"
        "http://www.w3.org/Graphics/SVG/1.1/DTD/svg11.dtd">
<svg class="icon" width="200px" height="200.00px" viewBox="0 0 1024 1024" version="1.1"
     xmlns="http://www.w3.org/2000/svg">
    <path d="M584.7 895.1H384.9c-3.1 0-5.7-2.5-5.7-5.7s2.5-5.6 5.7-5.6h199.7c3.1 0 5.7 2.5 5.7 5.6s-2.5 5.7-5.6 5.7z m-19.8-690.9c-6.4 0-12.2-4.4-13.7-10.9L540 145.1c-1.8-7.6 3-15.2 10.6-17 7.6-1.8 15.2 3 17 10.6l11.2 48.2c1.8 7.6-3 15.2-10.6 17-1.1 0.2-2.2 0.3-3.3 0.3z m157.3 124.2c-0.9 0-1.9-0.1-2.8-0.3l-48.5-9.8c-7.6-1.5-12.6-9-11.1-16.6 1.5-7.6 9-12.6 16.6-11.1l48.5 9.8c7.6 1.5 12.6 9 11.1 16.6-1.4 6.8-7.2 11.4-13.8 11.4z m-77.3-97.1c-4.1 0-8.1-1.7-10.9-5.1-5-6-4.1-14.9 1.9-19.9l41.6-34.3c6-5 14.9-4.1 19.9 1.9 5 6 4.1 14.9-1.9 19.9L653.9 228c-2.5 2.1-5.7 3.3-9 3.3z m136.5 624H448.2l233.6-84.7c14.5-5.2 26-15.8 32.6-29.8 6.5-13.9 7.2-29.6 2-44.1l-15.1-41.8c-1.9-5.1-7.5-7.8-12.7-5.9-5.1 1.9-7.8 7.5-5.9 12.7l15.1 41.8c3.4 9.5 3 19.8-1.3 28.9s-11.9 16.1-21.4 19.5l-262.8 95.3c-9.5 3.4-19.8 3-28.9-1.3-9.2-4.3-16.1-11.9-19.5-21.4L218.5 424c-7.1-19.6 3.1-41.4 22.7-48.5L504 280.3c9.5-3.4 19.8-3 28.9 1.3 9.2 4.3 16.1 11.9 19.5 21.4l59.3 164.2c1.9 5.1 7.5 7.8 12.7 5.9 5.1-1.9 7.8-7.5 5.9-12.7L571 296.2c-5.2-14.5-15.8-26-29.7-32.6-13.9-6.5-29.6-7.2-44.1-2l-262.8 95.3c-29.9 10.8-45.4 43.9-34.5 73.8l145.2 400.7c7.1 19.5 23.6 32.8 42.6 36.8 1.1 0.7 2.4 1.1 3.8 1.1h5c1 0 1.9 0.1 2.9 0.1s2 0 2.9-0.1h379.1c3.9 0 7-3.1 7-7 0-3.8-3.2-7-7-7z m-68.6-423.1l-15.4-8.3c-6.1-3.3-14.9 1-19.6 9.7L549.9 669.2c-0.6 1-0.9 2.2-0.8 3.3l0.8 26.1c-0.4 0-0.8 0.1-1.2 0.3L509 713.6c-2.2 0.8-3.3 3.3-2.5 5.5 0.8 2.2 3.3 3.3 5.5 2.5l38.2-14.2v0.3c0.1 2.9 2.5 4.2 4.9 2.7l30.1-18.2c0.9-0.6 1.7-1.4 2.3-2.5L715.4 454c4.7-8.7 3.5-18.4-2.6-21.8zM427 744.2l-29.1 10.9c-1.1 0.4-1.9 1.2-2.4 2.2-0.5 1-0.5 2.2-0.1 3.2 0.8 2.2 3.3 3.3 5.4 2.5l29.1-10.9c1.1-0.4 1.9-1.2 2.4-2.2 0.5-1 0.5-2.2 0.1-3.2-0.4-1.1-1.2-1.9-2.2-2.4-1-0.5-2.2-0.5-3.2-0.1z m60.9-22.7l-39.7 14.8c-1.1 0.4-1.9 1.2-2.4 2.2-0.5 1-0.5 2.2-0.1 3.2 0.8 2.2 3.3 3.3 5.4 2.5l39.7-14.8c1.1-0.4 1.9-1.2 2.4-2.2 0.5-1 0.5-2.2 0.1-3.2-0.4-1.1-1.2-1.9-2.2-2.4-1-0.5-2.2-0.5-3.2-0.1zM371 656c-1.8 0-3.4-1.1-4-2.8-0.8-2.2 0.3-4.6 2.5-5.5l24.9-9.3c2.2-0.8 4.6 0.3 5.4 2.5 0.8 2.2-0.3 4.6-2.4 5.4l-24.9 9.3c-0.5 0.3-1 0.4-1.5 0.4z m46.1-17.2c-1.7 0-3.3-1.1-4-2.8-0.4-1.1-0.4-2.2 0.1-3.2s1.3-1.8 2.4-2.2l39.7-14.8c1.1-0.4 2.2-0.4 3.2 0.1s1.8 1.3 2.2 2.4c0.4 1.1 0.4 2.2-0.1 3.2s-1.3 1.8-2.4 2.2l-39.7 14.8c-0.4 0.2-0.9 0.3-1.4 0.3z m60.9-22.7c-1.8 0-3.4-1.1-4-2.8-0.4-1.1-0.4-2.2 0.1-3.2s1.3-1.8 2.4-2.2l39.7-14.8c1.1-0.4 2.2-0.4 3.2 0.1s1.8 1.3 2.2 2.4c0.4 1.1 0.4 2.2-0.1 3.2s-1.3 1.8-2.4 2.2l-39.7 14.8c-0.4 0.2-0.9 0.3-1.4 0.3z m60.9-22.7c-2 0-3.8-1.5-4.2-3.5-0.4-2 0.8-4 2.7-4.7l39.7-14.8c1.1-0.4 2.2-0.4 3.2 0.1s1.8 1.3 2.2 2.4c0.4 1.1 0.4 2.2-0.1 3.2s-1.3 1.8-2.4 2.2l-39.7 14.8c-0.4 0.2-0.9 0.3-1.4 0.3z m0 0"/>
    <path d="M414.5 451.3l-52.9 91.2-18.1-10.2 46.2-79-51.6 3.7-1.3-20.5 65.3-4.8 24.4-41.8-71.4-3.5 1.1-20.5 149.6 7.4-1.1 20.5-55.1-2.6-22.4 38.5 84.5-6.3 1.5 20.7-98.7 7.2z m33.3 92.3l-12.2-8.7-8.3-64.9 20.5-2.6 6.5 54 63.2-14.2 4.4 19.8-74.1 16.6z"/>
</svg>