<?xml version="1.0" standalone="no"?><!DOCTYPE svg PUBLIC "-//W3C//DTD SVG 1.1//EN"
        "http://www.w3.org/Graphics/SVG/1.1/DTD/svg11.dtd">
<svg class="icon" width="200px" height="200.00px" viewBox="0 0 1024 1024" version="1.1"
     xmlns="http://www.w3.org/2000/svg">
    <path d="M978.944 587.776s-18.976 24.768-40.96 8.192a19.872 19.872 0 0 1-2.048-1.856v0.064l-1.216-1.312-2.88-3.072-0.064-0.256c-24.448-28.16-60.32-85.888-60.32-85.888-25.152-47.392-45.024-14.112-45.024-14.112-15.744 13.856-58.752 84.64-58.752 84.64-50.752 66.912-89.696 25.376-89.696 25.376-15.776-8.832-74.208-101.44-74.208-101.44-19.904-29.92-26.816-20.48-26.816-20.48-2.976 0.896-10.976 10.592-10.976 10.592-19.264 16.448-64.768 90.848-64.768 90.848-45.984 64.032-88.8 11.36-88.8 11.36-10.784-6.912-60.32-83.648-60.32-83.648-29.376-46.592-42.624-22.4-42.624-22.4-40.576 43.424-39.072 54.88-39.072 54.88-38.368 62.784-59.68 69.568-59.68 69.568-58.848 38.816-165.472-140.032-165.472-140.032s-1.728-15.552 5.408-25.92c8.256-12.032 25.568-19.072 25.568-19.072s24.8 36.096 36.416 51.04c21.088 27.168 38.08 45.696 38.08 45.696 40 45.152 55.136 17.536 55.136 17.536 19.04-22.432 71.072-101.728 71.072-101.728 53.952-62.624 99.232 16.544 99.232 16.544 13.824 19.36 54.144 77.632 54.144 77.632 23.264 33.536 41.248-0.224 41.248-0.224 9.152-11.776 47.488-69.376 47.488-69.376 54.624-86.24 102.176-30.24 102.176-30.24 6.912 6.656 60.032 88.32 60.032 88.32 34.048 52.032 52.544 13.632 52.544 13.632 8.352-10.464 39.36-59.552 39.36-59.552 48.544-82.464 85.28-59.488 85.28-59.488 37.92 23.584 74.048 89.216 74.048 89.216l3.328 5.216 0.16-0.128c-0.032 0 39.424 55.296 42.976 79.872z"/>
</svg>