<?xml version="1.0" encoding="UTF-8"?>
<svg width="121px" height="161px" viewBox="0 0 121 161" version="1.1" xmlns="http://www.w3.org/2000/svg"
     xmlns:xlink="http://www.w3.org/1999/xlink">
    <!-- Generator: Sketch 52.2 (67145) - http://www.bohemiancoding.com/sketch -->
    <title>man</title>
    <desc>Created with Sketch.</desc>
    <g id="组件" stroke="none" stroke-width="1" fill="none" fill-rule="evenodd">
        <g id="man">
            <path d="M26.0198777,152.037962 C23.8102614,152.037962 22.0190136,150.246714 22.0190137,148.037098 C22.0190138,145.827482 23.8102617,144.036234 26.0198779,144.036234 C28.2294942,144.036234 30.020742,145.827482 30.020742,148.037098 C30.020742,149.098193 29.5992236,150.115829 28.848916,150.866137 C28.0986084,151.616444 27.0809729,152.037963 26.0198777,152.037962"
                  id="路径" fill="#5E413A"></path>
            <polygon id="路径" fill="#5E413A"
                     points="29.3005865 142.315862 28.7804741 142.035802 25.8998517 147.637012 20.2986418 144.75639 20.0185813 145.276502 25.6197913 148.157124 22.7391691 153.758334 23.2592814 154.038395 26.1399036 148.437185 31.7411136 151.317807 32.021174 150.797695 26.4199641 147.917072"></polygon>
            <polygon id="路径" fill="#5E413A"
                     points="27.3001543 148.037098 26.0198777 148.037098 34.7417618 156.038827 36.0220384 156.038827"></polygon>
            <path d="M78.9313074,90.0245668 L89.433576,90.0245668 C91.0139173,90.0245668 88.9934809,91.3648564 88.9934811,93.0252149 C88.9934812,94.6855735 90.9939132,96.0258631 89.433576,96.0258631 L78.9313074,96.0258631 C77.2740951,96.0258631 75.9306592,94.6824272 75.9306592,93.0252149 C75.9306592,91.3680027 77.2740951,90.0245668 78.9313074,90.0245668"
                  id="路径" fill="#5E413A"></path>
            <path d="M42.8235076,92.965202 C43.7637106,94.4855303 44.1237884,95.6657852 43.723702,96.3059236 C37.3823323,106.768184 37.3623278,114.309813 35.8820082,120.311109 C34.4016885,126.312406 28.0203099,142.875983 28.0203099,142.875983 L34.0216062,146.036666 C34.0216062,146.036666 54.0259275,107.568356 59.8071764,95.2256903 C60.5273319,93.705362 59.3270727,91.0247829 58.1068091,88.0241346 C53.6258411,91.2048217 46.6643372,92.4850981 42.8235076,92.965202"
                  id="路径" fill="#F8C28A"></path>
            <path d="M40.5830236,92.0249988 C44.4838663,91.5448951 51.5053831,90.2646185 56.0263596,87.1239401 C50.6051886,74.0211097 28.0203099,52.9365552 28.0203099,52.9365552 C21.0187973,54.5168965 3.63504231,46.0150599 3.63504231,46.0150599 C0.294320711,49.6558464 -2.94637938,59.1779033 4.77528853,65.2392126 C6.67569902,66.7195324 10.9566238,68.1398393 14.577406,70.2002844 C25.6998087,76.461637 37.1222761,86.5238107 40.5830236,92.0249988"
                  id="路径" fill="#563F31"></path>
            <path d="M27.1801284,142.035802 C25.9556219,142.484495 24.8908789,143.284792 24.1194672,144.336299 C22.859195,146.076675 22.3190782,146.916856 22.119035,147.196917 C21.9189918,147.476977 21.8789831,147.717029 24.8196185,149.037314 C28.2248646,150.618659 31.4790063,152.506864 34.5417186,154.678533 C37.502358,156.778987 45.8641644,159.899661 48.1046484,156.678965 C48.1046484,156.678965 48.4047132,155.618736 46.644333,154.678533 C43.823052,153.654181 41.3146447,151.917591 39.36276,149.637444 C36.742194,146.296722 36.7021852,144.036234 35.501926,144.036234 C34.3016668,144.036234 34.2416539,146.036666 30.080755,145.016446 C28.5914168,144.716701 27.4392431,143.532744 27.1801284,142.035802"
                  id="路径" fill="#19B89E"></path>
            <path d="M48.0246311,157.419125 C45.8641644,160.719838 37.8224272,157.619168 34.9618092,155.418693 C32.0242467,153.260483 28.8975038,151.372386 25.6197913,149.777474 C22.7791776,148.477193 23.0192295,147.957081 23.0192295,147.957081 C23.0192295,147.957081 22.179048,148.917289 22.059022,149.137336 C21.9389961,149.357383 22.059022,150.757686 25.1796962,152.238006 C27.66216,153.204508 30.0926385,154.299559 32.4612692,155.518714 C35.0818352,157.139065 40.0229026,160.21973 44.0237669,160.039691 C47.32448,159.879657 47.7845794,158.519363 48.0246311,157.419125"
                  id="路径" fill="#1F1B1C"></path>
            <path d="M42.0233348,153.678317 C40.6464751,152.704735 39.4768939,151.467155 38.5825915,150.03753 C36.3621118,146.51677 36.3221031,144.036234 35.2818784,144.036234 C34.8617877,144.036234 34.5217141,144.496334 34.0216062,144.936428 L34.6417403,146.936861 C35.3819001,148.617224 36.0220384,151.51785 38.6426044,153.158205 C41.2631705,154.798559 41.9633218,153.698321 41.9633218,153.698321"
                  id="路径" fill="#4C4D4F"></path>
            <path d="M34.941805,146.736817 C34.8242169,146.983435 34.5358587,147.097031 34.2816624,146.996874 C34.1660553,146.937405 34.0795074,146.833596 34.0418048,146.709177 C34.0041022,146.584758 34.0184684,146.450368 34.0816192,146.336731 C34.1992073,146.090113 34.4875655,145.976518 34.7417618,146.076675 C34.8573689,146.136143 34.9439168,146.239953 34.9816194,146.364372 C35.019322,146.48879 35.0049558,146.62318 34.941805,146.736817"
                  id="路径" fill="#1F1B1C"></path>
            <path d="M34.1416322,147.096895 C34.1416322,147.096895 35.4219088,146.856843 35.8019908,146.036666 C35.8019908,146.036666 36.1220599,146.036666 36.002034,146.816835 C35.6889679,147.556004 34.9643702,148.036444 34.1616364,148.037098 C34.1616364,148.037098 33.8615716,147.797046 34.1616364,147.096895"
                  id="路径" fill="#F4E9E9"></path>
            <path d="M36.9422372,148.73725 C36.824649,148.983867 36.5362909,149.097463 36.2820946,148.997306 C36.1664875,148.937837 36.0799396,148.834028 36.042237,148.709609 C36.0045343,148.58519 36.0189006,148.450801 36.0820514,148.337163 C36.1996395,148.090546 36.4879976,147.97695 36.742194,148.077107 C36.857801,148.136575 36.944349,148.240385 36.9820516,148.364804 C37.0197542,148.489222 37.0053879,148.623612 36.9422372,148.73725"
                  id="路径" fill="#1F1B1C"></path>
            <path d="M36.1420644,149.097327 C36.1420644,149.097327 37.422341,148.837271 37.8024229,148.037098 C37.8024229,148.037098 38.1224921,148.037098 38.0024661,148.817267 C37.6894001,149.556436 36.9648024,150.036876 36.1620686,150.03753 C36.1620686,150.03753 35.8620037,149.797479 36.1620686,149.097327"
                  id="路径" fill="#F4E9E9"></path>
            <path d="M36.9822457,150.63766 C36.9061065,150.899212 36.6528333,151.068061 36.3821161,151.037746 C36.253001,151.010526 36.1417874,150.92918 36.0767328,150.814378 C36.0116782,150.699576 35.9990448,150.562368 36.0420427,150.437617 C36.1106884,150.170657 36.3693454,149.998219 36.6421723,150.03753 C36.7680137,150.070171 36.8752382,150.152451 36.9393326,150.265559 C37.0034271,150.378666 37.0189114,150.512932 36.9822457,150.63766"
                  id="路径" fill="#1F1B1C"></path>
            <path d="M38.0224704,151.357816 C38.0224704,151.357816 39.36276,150.757686 39.6628249,150.057535 C39.6628249,150.057535 39.982894,149.8975 39.9628896,150.557643 C39.6339487,151.302631 38.9750143,151.850509 38.1825051,152.037962 C38.1825051,152.037962 37.8224272,152.037962 38.0224704,151.357816"
                  id="路径" fill="#F4E9E9"></path>
            <path d="M54.0259275,61.6984478 C54.0259275,61.6984478 68.0289524,30.011603 72.0298165,28.3512443 C76.0306807,26.6908855 83.1122105,30.7717671 78.4311995,39.9937593 C73.7501884,49.2157515 62.8478332,61.4183874 62.4277424,62.3185819 C62.0076516,63.2187764 77.2909531,86.0237024 77.2909531,86.0237024 L74.0302487,86.0237024 C74.0302487,86.0237024 53.1057287,64.1589794 54.0259275,61.6984478"
                  id="路径" fill="#C38A58"></path>
            <path d="M77.7310482,86.0237024 C77.7310482,86.0237024 80.2515927,90.0245666 80.0115408,91.0247828 C79.7714889,92.0249989 78.5112167,95.7858112 77.6310265,96.0258631 C75.5785342,95.8481724 73.6466311,94.9809312 72.1498425,93.5653316 C71.4096827,92.3450679 74.5703653,89.5644674 74.5303568,89.4444414 C74.4903483,89.3244155 74.3103092,86.0237024 74.3103092,86.0237024 L77.7310482,86.0237024 Z"
                  id="路径" fill="#C38A58"></path>
            <path d="M74.4903481,88.2241778 C75.9089682,88.5479776 77.3890304,88.4788158 78.7712729,88.0241346 C78.7712729,88.0241346 80.2315883,90.0245668 80.0115408,90.8847525 C79.7914933,91.7449383 78.591234,96.0258631 77.3109573,96.0258631 C76.0306807,96.0258631 72.0298165,94.2654828 72.0298165,92.8851847 C72.0298165,91.5048866 74.2502962,89.7044976 74.3703221,89.4644457 C74.4499483,89.0558195 74.4901415,88.6404898 74.4903481,88.2241778"
                  id="路径" fill="#C38A58"></path>
            <path d="M78.0311129,26.4108251 L85.812794,22.4099609 L91.6740601,8.0068496 L114.038891,14.1681806 L112.038459,24.0103067 C111.939704,24.4529275 111.655555,24.8317923 111.25829,25.0505314 L108.797759,26.3708165 L106.317223,32.012035 C106.223217,32.234173 105.997557,32.3711809 105.757102,32.3521086 L102.636428,32.012035 L97.1552441,38.0133316 L94.5546823,36.8930894 L91.7340731,34.3925493 C91.5601637,34.2382864 91.3277642,34.1672805 91.0973351,34.1980043 C90.866906,34.2287282 90.6612294,34.3581442 90.5338137,34.5525838 L86.1728716,37.3331845 L78.0311129,26.4108251 Z"
                  id="路径" fill="#F8C28A"></path>
            <path d="M112.818628,19.3893084 C112.818628,19.3893084 103.256562,10.7874503 97.1552441,19.2292738 C97.1552441,19.2292738 94.3346348,15.9885737 93.4944533,21.229706 L91.6140471,23.2301381 C90.9204395,23.9322631 89.944677,24.2800441 88.9633432,24.1749011 C87.9820094,24.0697582 87.1020741,23.5231524 86.5729582,22.6900213 L86.0328414,21.6297924 L91.854099,8.0068496 L114.038891,13.8681157 L112.818628,19.3893084 Z"
                  id="路径" fill="#35323F"></path>
            <polygon id="路径" fill="#35323F"
                     points="86.0328414 22.0098745 88.6934162 3.30583413 100.135888 2.00555324 97.7553737 4.00598542 105.637076 3.3258384 103.216553 4.82616249 112.178489 5.14623164 108.33766 7.10665511 117.119557 7.42672427 112.898645 8.92704836 120.040188 9.42715644 116.099336 11.3275669 119.940166 12.0477225 116.419406 13.2679861 119.740123 13.4480251 116.359393 14.8683317 113.918865 19.7093776 97.4153003 10.6674244"></polygon>
            <path d="M102.896484,21.0896757 C102.896484,21.0896757 101.716229,19.6493646 101.956281,19.6293602 C102.478777,19.8114128 102.981458,20.0459973 103.456605,20.3295115 C102.87648,20.3295115 102.896484,21.0896757 102.896484,21.0896757 M104.896916,20.2494942 C103.696657,19.6493646 96.0350021,16.0085781 96.0350021,16.0085781 L96.0350021,17.1888331 L102.476394,21.6097881 C102.916489,22.9300732 105.37702,28.0111708 105.37702,28.0111708 C107.837552,27.5910802 110.038027,24.4303973 110.038027,24.4303973 C108.524413,22.7992936 106.786666,21.391584 104.876912,20.2494942"
                  id="形状" fill="#1D1F1F" fill-rule="nonzero"></path>
            <path d="M104.376804,24.0103067 C106.363522,25.0308925 108.257731,26.2223029 110.038027,27.5710757 C110.038027,28.0711838 107.517482,30.0916203 106.937357,30.011603 C106.357232,29.9315858 102.936493,23.7302462 104.376804,24.0103067"
                  id="路径" fill="#6AC8C4"></path>
            <path d="M104.316791,26.0107387 L106.037163,25.1505529 L105.076955,24.0103067 L104.036731,24.530419 C104.036731,24.9705141 104.196765,25.470622 104.316791,26.0107387"
                  id="路径" fill="#90D4D3"></path>
            <path d="M106.99737,26.0107387 L104.036731,26.9109332 C104.196765,27.2910153 104.3568,27.6710974 104.516834,28.0111708 L108.037595,26.9509419 C107.715162,26.6116519 107.36742,26.2973465 106.99737,26.0107387"
                  id="路径" fill="#90D4D3"></path>
            <path d="M106.037163,30.5717239 C106.217202,30.8317801 106.357232,30.9918146 106.437249,31.011819 C106.517266,31.0318235 107.377452,30.5917284 108.037595,30.011603 L106.037163,30.5717239 Z"
                  id="路径" fill="#90D4D3"></path>
            <path d="M82.6921198,22.9500775 C82.6921198,22.9500775 57.1666059,19.2092695 43.783715,20.169477 C27.0601024,21.3697362 5.77550471,25.4306135 0.0142600889,41.1740142 C0.0142600889,41.1740142 9.31626951,60.5381972 26.3599511,62.018517 C26.3599511,62.018517 30.3608153,52.4164428 39.6428204,50.0159243 C50.3451323,47.255328 73.6501666,54.4568836 86.0328414,36.0128994 L82.6921198,22.9500775 Z"
                  id="路径" fill="#68AFFF"></path>
            <path d="M56.0263596,63.6788756 C56.0263596,63.6788756 70.0293845,32.012035 74.0302487,30.3516764 C78.0311129,28.6913179 85.1126427,32.7721993 80.4316315,41.9941915 C75.7506203,51.2161836 64.8482652,63.4188196 64.4281746,64.3190139 C64.0080839,65.2192082 79.2913852,88.0241346 79.2913852,88.0241346 L76.0306809,88.0241346 C76.0306809,88.0241346 55.1061609,66.1594114 56.0263596,63.6788756"
                  id="路径" fill="#F8C28A"></path>
            <path d="M81.7319124,88.0241346 C81.7319124,88.0241346 84.2524569,92.0249988 84.012405,93.0252149 C83.7723531,94.0254311 82.5120809,97.7862434 81.6318908,98.0262953 C79.5793986,97.8486045 77.6474955,96.9813634 76.1507068,95.5657637 C75.410547,94.3455001 78.5712297,91.5648996 78.531221,91.4448736 C78.4912123,91.3248476 78.3111735,88.0241346 78.3111735,88.0241346 L81.7319124,88.0241346 Z"
                  id="路径" fill="#F8C28A"></path>
            <path d="M76.4907803,90.22461 C77.9094004,90.5484097 79.3894625,90.479248 80.7717051,90.0245668 C80.7717051,90.0245668 82.2320204,92.0249989 82.011973,92.8851847 C81.7919255,93.7453705 80.5916661,98.0262953 79.3113895,98.0262953 C78.0311129,98.0262953 74.0302487,96.265915 74.0302487,94.8856167 C74.0302487,93.5053184 76.2507284,91.7049296 76.3707543,91.4648779 C76.4503804,91.0562517 76.4905737,90.6409219 76.4907803,90.22461"
                  id="路径" fill="#F8C28A"></path>
            <path d="M80.0315451,6.00641742 C80.0315451,6.00641742 87.7932217,12.767878 95.594907,14.4682453 C103.621924,16.3213314 111.946599,16.4848275 120.040188,14.9483492 C119.906298,11.6997378 118.614931,8.60613481 116.399401,6.22646507 C112.558571,1.7254928 100.355935,-5.07597653 80.0315451,6.00641742"
                  id="路径" fill="#FFFFFF"></path>
            <path d="M82.0319772,8.0068496 C81.0508422,8.77854827 80.6454359,10.0742586 81.0117568,11.267554 C81.6118864,13.4280206 79.3113895,15.6685047 80.2315883,17.7689584 C81.151787,19.8694121 83.2922494,20.4295332 86.2328846,19.7693906 C86.9454516,17.3224752 88.251008,15.0892866 90.0337058,13.2679861 C87.2072654,11.7692749 84.5282016,10.0077905 82.0319772,8.0068496"
                  id="路径" fill="#373837"></path>
            <path d="M88.0332736,6.50652551 C88.0332736,6.50652551 95.8949719,17.2088373 116.039323,13.0479385 C116.039323,13.0479385 95.3348508,6.62655129 88.8934594,6.00641742 L88.0332736,6.50652551 Z"
                  id="路径" fill="#E4223A"></path>
            <path d="M89.8736711,4.16601991 C89.8736711,4.16601991 104.696873,2.5256656 116.039323,10.0072818 C116.039323,10.0072818 100.355935,5.02620587 88.0332736,5.10622311 L89.8736711,4.16601991 Z"
                  id="路径" fill="#E4223A"></path>
            <path d="M92.0341378,3.14579947 C96.1073493,2.93031036 100.183651,3.50778645 104.036731,4.84616693 C108.23628,6.88340607 112.252062,9.27948908 116.039323,12.0077138 C116.039323,12.0077138 111.598364,-1.99531111 92.0341378,3.14579947"
                  id="路径" fill="#E4223A"></path>
            <path d="M80.0315451,7.52674596 C80.0315451,7.52674596 80.9317396,8.56697067 82.4120594,10.0072818 C82.8963346,8.5145336 83.568541,7.08945579 84.4124914,5.76636569 C85.0926384,5.02620569 89.8736711,2.10557476 90.0337058,2.00555324 C86.4492825,3.35059 83.0798654,5.21050824 80.0315451,7.52674596"
                  id="路径" fill="#E4223A"></path>
            <path d="M80.8717266,10.0072818 C80.7352851,10.4368017 80.7352851,10.898047 80.8717266,11.3275669 C81.2918172,12.5878391 80.3716185,13.8681157 79.9515278,15.1283879 C80.7683546,15.9323921 81.9738363,16.1968204 83.0521977,15.8085349 C84.812578,15.0683751 83.9323879,11.5076059 80.7917093,10.0072818"
                  id="路径" fill="#606060"></path>
            <path d="M93.1143712,24.5504233 C92.2141767,24.5504233 89.113507,21.0096585 87.8332304,19.6093559 L96.6351317,17.368872 C95.7549415,19.7493863 93.9345484,24.5104148 93.1143712,24.5504233 M100.035866,16.5486948 L97.1152354,16.0085781 L86.8330144,17.4088805 L86.0328414,20.0094423 C86.0328414,20.0094423 93.6744921,27.6310887 94.2346132,28.3512443 C94.7947342,29.0713998 93.2143927,35.3727611 93.2143927,35.3727611 L94.6947125,35.9528864 C94.6947125,35.9528864 96.5751188,29.95159 95.774946,27.6110844 C94.9747732,25.2705788 100.035866,16.4886818 100.035866,16.4886818"
                  id="形状" fill="#373837" fill-rule="nonzero"></path>
        </g>
    </g>
</svg>