<?xml version="1.0" standalone="no"?><!DOCTYPE svg PUBLIC "-//W3C//DTD SVG 1.1//EN"
        "http://www.w3.org/Graphics/SVG/1.1/DTD/svg11.dtd">
<svg class="icon" width="200px" height="200.00px" viewBox="0 0 1024 1024" version="1.1"
     xmlns="http://www.w3.org/2000/svg">
    <path d="M289.782 368.362a7.524 7.524 0 0 1-6.97-4.688l-102.2-250.836a7.534 7.534 0 0 1 4.13-9.81L255.94 74.02c12.44-5.07 26.112-4.994 38.5 0.222 12.384 5.214 21.996 14.938 27.066 27.382l69.918 171.602c10.464 25.686-1.918 55.1-27.606 65.566l-71.198 29.01c-0.908 0.376-1.874 0.56-2.838 0.56zM197.39 114.132l96.522 236.896 64.228-26.17c18-7.334 26.68-27.948 19.346-45.948l-69.918-171.602a35.018 35.018 0 0 0-18.968-19.19 35.006 35.006 0 0 0-26.98-0.156L197.39 114.132z"
          fill="#4A555F"/>
    <path d="M220.278 123.768l47.966-19.544a17.564 17.564 0 0 1 6.66-1.318 17.64 17.64 0 0 1 16.4 11.028l69.916 171.602a17.574 17.574 0 0 1-0.078 13.542 17.568 17.568 0 0 1-9.63 9.52l-47.968 19.544-83.266-204.374z"
          fill="#F58E6F"/>
    <path d="M899.86 829.818c-0.946 0-1.906-0.18-2.836-0.558l-250.836-102.202a7.528 7.528 0 0 1-4.126-9.81l29.01-71.196v-0.002c10.464-25.684 39.866-38.074 65.568-27.604l171.6 69.918c25.682 10.466 38.068 39.878 27.608 65.566l-29.014 71.198a7.53 7.53 0 0 1-6.974 4.69z m-241.022-113.86l236.898 96.524 26.172-64.228c7.33-18.002-1.348-38.614-19.352-45.948l-171.6-69.918c-18.01-7.336-38.612 1.348-45.95 19.346l-26.168 64.224z"
          fill="#4A555F"/>
    <path d="M681.728 706.322l19.54-47.968a17.644 17.644 0 0 1 23.06-9.708l171.602 69.918a17.578 17.578 0 0 1 9.632 9.52 17.574 17.574 0 0 1 0.078 13.542l-19.544 47.966-204.368-83.27z"
          fill="#F58E6F"/>
    <path d="M698.194 971.964c-115.37 0-255.268-81.642-416.824-243.466C97.994 544.816 18.608 388.604 45.416 264.202 70.574 147.46 180.26 104.726 184.918 102.964a7.52 7.52 0 0 1 9.632 4.198l102.2 250.836a7.526 7.526 0 0 1-4.066 9.782l-81.542 34.08c-8.894 94.03 143.756 250.036 145.322 251.624 1.514 1.494 157.51 154.114 251.548 145.248l34.084-81.54a7.522 7.522 0 0 1 9.784-4.068l250.832 102.2a7.528 7.528 0 0 1 4.234 9.532c-1.71 4.724-43.246 115.998-159.538 141.82-15.864 3.528-32.282 5.288-49.214 5.288zM183.524 119.988c-23.798 11.16-103.558 54.92-123.434 147.566C34.548 386.62 112.58 538.126 292.02 717.862c181.298 181.6 333.368 260.388 451.952 234.164 92.402-20.43 135.236-101.678 146.02-125.63l-236.888-96.518-32.894 78.696a7.52 7.52 0 0 1-5.83 4.542c-100.834 15.044-261.758-142.284-268.558-148.99-6.78-6.872-164.132-167.764-149.06-268.634a7.532 7.532 0 0 1 4.54-5.832l78.696-32.892-96.474-236.78z"
          fill="#4A555F"/>
    <path d="M698.848 939.262c-106.828-0.008-239.524-78.672-394.4-233.806C132.166 532.888 53.576 382.878 77.176 271.642c14.778-69.672 67.158-109.452 97.392-127.1l82.606 202.738-75.69 31.634-2.09 13.986c-7.094 47.49 17.278 110.194 72.436 186.368 39.23 54.174 79.712 95.39 81.418 97.118 1.828 1.806 39.564 38.882 90.264 76.464 70.59 52.328 130.002 78.858 176.584 78.856a115.022 115.022 0 0 0 16.88-1.22l13.986-2.09 31.632-75.686 203.368 82.86c-19.814 36.026-69.966 103.698-167.098 103.698-0.008-0.006-0.008-0.006-0.016-0.006z"
          fill="#F58E6F"/>
    <path d="M239.792 745.05a1086.092 1086.092 0 0 1-10.744-10.696l10.696-10.59a995.62 995.62 0 0 0 10.592 10.544l-10.544 10.742z m-21.332-21.54a1011.176 1011.176 0 0 1-10.44-10.996l10.99-10.284a1063.352 1063.352 0 0 0 10.288 10.836l-10.838 10.444zM197.73 701.38a1158.056 1158.056 0 0 1-10.126-11.276l11.268-9.98a1058.114 1058.114 0 0 0 9.99 11.124l-11.132 10.132z m-20.096-22.688a1046.946 1046.946 0 0 1-9.816-11.552l11.538-9.662a1085.5 1085.5 0 0 0 9.678 11.388l-11.4 9.826z m-19.476-23.234a1094.784 1094.784 0 0 1-9.498-11.812l11.792-9.35c3.058 3.856 6.18 7.74 9.37 11.654l-11.664 9.508z m-18.832-23.756a1097.58 1097.58 0 0 1-9.174-12.07l12.048-9.024a1092.114 1092.114 0 0 0 9.046 11.904l-11.92 9.19z m-18.182-24.258a1113.76 1113.76 0 0 1-8.844-12.318l12.292-8.688a1046.32 1046.32 0 0 0 8.716 12.146l-12.164 8.86z m-17.51-24.754a1063.22 1063.22 0 0 1-8.498-12.56l12.528-8.344a1048.456 1048.456 0 0 0 8.376 12.382l-12.406 8.522z m-16.82-25.242a1038.498 1038.498 0 0 1-8.136-12.804l12.762-7.976a994.25 994.25 0 0 0 8.018 12.616l-12.644 8.164z m-16.084-25.732a955.46 955.46 0 0 1-7.746-13.056l13.002-7.576a952.106 952.106 0 0 0 7.628 12.85l-12.884 7.782z m-15.284-26.248a791.278 791.278 0 0 1-7.302-13.34l13.272-7.096a772.594 772.594 0 0 0 7.166 13.088l-13.136 7.348z m-14.34-26.862c-3.04-6.016-4.926-9.75-5.96-12.286l-0.002 0.002-0.696-1.414 0.144-0.072c-0.934-2.834-0.392-3.864 0.846-5.876l4.98 3.064L48 458.36l0.556 1.128c0.062 0.124 0.12 0.248 0.176 0.374 0.156 0.352 2.07 4.558 5.808 11.958l-13.434 6.786z m-12.918-27.93a363.018 363.018 0 0 1-5.506-14.368l14.164-5.092a350.546 350.546 0 0 0 5.276 13.774l-13.934 5.686z m-10.42-28.912a410.148 410.148 0 0 1-4.35-14.712l14.512-3.998a393.416 393.416 0 0 0 4.188 14.17l-14.35 4.54z m-8.13-29.59a385.382 385.382 0 0 1-3.204-15.014l14.776-2.852c0.96 4.968 1.994 9.786 3.082 14.436l-14.654 3.43z m-5.804-30.16a360.304 360.304 0 0 1-1.96-15.256l14.968-1.588c0.526 4.968 1.158 9.842 1.876 14.604l-14.884 2.24zM0.584 331.422A325.984 325.984 0 0 1 0 316.026l15.05-0.21c0.066 4.858 0.254 9.798 0.554 14.684l-15.02 0.922z m14.626-30.282l-15.04-0.542c0.186-5.17 0.51-10.356 0.958-15.418l14.992 1.332c-0.428 4.8-0.734 9.722-0.91 14.628z m2.596-29.164l-14.894-2.15c0.734-5.104 1.626-10.234 2.648-15.25l14.748 3c-0.962 4.734-1.804 9.58-2.502 14.4z m5.84-28.616l-14.546-3.872a251.342 251.342 0 0 1 4.452-14.858l14.276 4.762a237.202 237.202 0 0 0-4.182 13.968z m9.226-27.642l-13.948-5.648a244.416 244.416 0 0 1 6.276-14.194l13.566 6.522a231.156 231.156 0 0 0-5.894 13.32z m12.62-26.242l-13.12-7.374a244.68 244.68 0 0 1 8.026-13.28l12.63 8.184a235.41 235.41 0 0 0-7.536 12.47z m15.842-24.448l-12.096-8.956a259.556 259.556 0 0 1 9.59-12.17l11.538 9.664a247.254 247.254 0 0 0-9.032 11.462z m18.738-22.38l-10.96-10.316a281.478 281.478 0 0 1 10.908-10.956l10.372 10.908a265.168 265.168 0 0 0-10.32 10.364zM623.846 710.672l-14.09-5.292 5.292-14.09 14.09 5.292-5.292 14.09z m10.588-28.178l-14.09-5.292 5.292-14.09 14.09 5.292-5.292 14.09z m10.586-28.178l-14.09-5.294 5.316-14.124 14.062 5.378-5.288 14.04z m11.422-26.156l-12.768-7.974a89.632 89.632 0 0 1 9.94-13.066l11.092 10.174a74.32 74.32 0 0 0-8.264 10.866z m138.788-11.842l-14.046-5.408 5.408-14.046 14.046 5.408-5.408 14.046z m-120.416-8.218l-9.074-12.008a90.652 90.652 0 0 1 13.92-8.656l6.762 13.448a75.28 75.28 0 0 0-11.608 7.216z m92.324-2.596l-14.046-5.408 5.408-14.046 14.046 5.408-5.408 14.046z m-68.004-9.636l-4.234-14.444a90.656 90.656 0 0 1 16.08-3.168l1.558 14.97c-4.516 0.472-9.028 1.36-13.404 2.642z m40.518-0.492a75.108 75.108 0 0 0-13.464-2.318l1.196-15.004a90.26 90.26 0 0 1 16.158 2.784l-3.89 14.538zM516.058 526.768a7.526 7.526 0 0 1-7.524-7.524V122.364c0-38.778 31.552-70.328 70.33-70.328h374.804c38.778 0 70.33 31.55 70.33 70.328v233.152c0 38.78-31.552 70.328-70.33 70.328H618.144l-96.708 98.666a7.526 7.526 0 0 1-5.378 2.258z m62.808-459.68c-30.478 0-55.28 24.796-55.28 55.276v378.45l86.022-87.764a7.526 7.526 0 0 1 5.374-2.258h338.686c30.478 0 55.28-24.798 55.28-55.278V122.364c0-30.48-24.8-55.276-55.28-55.276H578.866z"
          fill="#4A555F"/>
    <path d="M541.144 122.364c0-20.798 16.922-37.718 37.72-37.718h374.806c20.798 0 37.72 16.92 37.72 37.718v233.152c0 20.798-16.922 37.718-37.72 37.718H604.44l-63.294 64.578V122.364z"
          fill="#71CCE0"/>
    <path d="M924.974 167.736h-14.248v-15.05h14.248v15.05z m-29.298 0h-15.05v-15.05h15.05v15.05z m-30.102 0h-15.05v-15.05h15.05v15.05z m-30.1 0h-15.05v-15.05h15.05v15.05z m-30.102 0h-15.05v-15.05h15.05v15.05z m-30.102 0h-15.05v-15.05h15.05v15.05z m-30.102 0h-15.05v-15.05h15.05v15.05z m-30.102 0h-15.05v-15.05h15.05v15.05zM607.114 230.226h317.86v15.05h-317.86zM607.114 307.768h317.86v15.05h-317.86z"
          fill="#4A555F"/>
</svg>