<?xml version="1.0" standalone="no"?><!DOCTYPE svg PUBLIC "-//W3C//DTD SVG 1.1//EN"
        "http://www.w3.org/Graphics/SVG/1.1/DTD/svg11.dtd">
<svg t="1559316686282" class="icon" style="" viewBox="0 0 1024 1024" version="1.1" xmlns="http://www.w3.org/2000/svg"
     p-id="1211" xmlns:xlink="http://www.w3.org/1999/xlink" width="200" height="200">
    <defs>
        <style type="text/css"></style>
    </defs>
    <path d="M948.416 859.584l-300.8-278.72c-2.304-2.112-5.12-3.328-7.808-4.672C677.056 523.84 699.52 460.16 699.52 391.04c0-176.704-143.104-320-320-320s-320 143.296-320 320c0 176.704 143.104 320.064 320 320.064 82.752 0 157.312-32.256 214.08-83.712 1.472 2.24 2.624 4.672 4.672 6.592l300.8 278.72c13.952 12.992 36.352 11.648 49.984-3.072C962.752 894.912 962.368 872.576 948.416 859.584zM379.52 679.104c-159.168 0-288-129.152-288-288.128 0-159.04 128.832-288 288-288 159.104 0 288 128.96 288 288C667.52 550.016 538.688 679.104 379.52 679.104z"
          p-id="1212"></path>
</svg>