<?xml version="1.0" standalone="no"?><!DOCTYPE svg PUBLIC "-//W3C//DTD SVG 1.1//EN"
        "http://www.w3.org/Graphics/SVG/1.1/DTD/svg11.dtd">
<svg class="icon" width="200px" height="200.00px" viewBox="0 0 1024 1024" version="1.1"
     xmlns="http://www.w3.org/2000/svg">
    <path d="M431.633157 491.3394c0 0 117.245291 24.489312 175.109418-8.704903 0 0-89.360705 70.000423-89.360705 166.223915C517.381869 648.894533 508.749206 528.109489 431.633157 491.3394z"
          fill="#ffffff"/>
    <path d="M448.970723 959.200847c0 0 68.555626 6.537707 68.555626-80.691922 0 0 3.034074 88.385467 65.124233 78.488607C582.614462 956.997531 531.865961 978.380529 448.970723 959.200847z"
          fill="#C785C8"/>
    <path d="M186.703915 263.856085c0 0-30.015661 65.738272 11.450018 91.527901 0 0-67.074709-17.156966-81.450441 37.131287C116.667372 392.515273 125.263915 309.583915 186.703915 263.856085z"
          fill="#8389E0"/>
    <path d="M847.373545 247.746596c0 0 49.303704 50.351182 1.119718 81.522681 0 0 58.947725-18.276684 66.42455 36.336649C914.917813 365.605926 920.263563 296.038942 847.373545 247.746596z"
          fill="#6BD089"/>
    <path d="M516.767831 890.464621l0-253.092346c-4.514991-31.063139-21.924797-116.233933-84.376155-146.032875 0 0 0.650159 0.07224 1.661517 0.361199L194.144621 352.602751c1.083598 0.830758 1.733757 1.986596 3.034074 2.745115 0 0-61.006561-15.025891-78.849806 31.135379-0.469559 4.153792-0.939118 8.163104-1.119718 11.197178l0 296.400141c2.383915 24.091993 12.605855 80.294603 54.613333 104.061517 3.323034 1.842116 5.923668 3.467513 7.657425 4.87619l269.274074 156.146455C448.790123 959.200847 510.663563 964.943915 516.767831 890.464621z"
          fill="#FFF766"/>
    <path d="M194.144621 352.602751l239.872451 139.097848c14.014533 2.708995 116.342293 21.238519 170.775026-7.874145l246.229559-156.110335c42.946596-31.171499-3.973192-79.211005-3.973192-79.211005 9.029982 5.887549 16.759647 12.172416 23.514074 18.529524-5.526349-5.706949-10.799859-10.691499-15.13425-14.411852 0 0-254.609383-147.658272-261.688889-152.064903-63.029277-38.865044-134.510617-6.862787-152.101023 1.769877L185.295238 264.831323C182.983563 269.996473 159.686208 326.596402 194.144621 352.602751z"
          fill="#F47378"/>
    <path d="M915.098413 359.140459c-0.469559-5.02067-1.191958-9.896861-2.203316-14.700811 2.275556 13.111534 1.733757 21.960917 1.733757 21.960917-7.476825-54.721693-66.42455-36.408889-66.42455-36.408889 1.083598-0.722399 1.914356-1.517037 2.853474-2.275556l-246.229559 156.110335c0.830758-0.469559 1.733757-0.686279 2.492275-1.191958 0 0-89.288466 70.000423-89.288466 166.223915 0 0-0.361199-4.334392-1.300317-11.522257l0 253.092346c0.288959-3.864832 0.577919-7.729665 0.577919-11.955697 0 0 3.034074 88.385467 65.124233 78.488607l263.458765-167.018554c0.10836 0 0.10836-0.03612 0.1806-0.07224 72.890018-44.319153 68.555626-138.628289 68.555626-138.628289l0.469559 0.1806L915.098413 359.140459z"
          fill="#60C5F1"/>
    <path d="M445.25037 274.403104a1.968 1.389 0 1 0 142.168042 0 1.968 1.389 0 1 0-142.168042 0Z" fill="#333333"/>
    <path d="M673.708924 792.904691c0 30.91866-22.394356 66.930229-49.917743 80.619683l0 0c-27.631746 13.653333-50.026102-0.325079-50.026102-31.207619l0 0c0-30.95478 22.394356-66.966349 50.026102-80.583563l0 0C651.350688 748.043739 673.708924 761.986032 673.708924 792.904691z"
          fill="#333333"/>
    <path d="M770.365855 612.919083c0 30.84642-22.322116 66.930229-49.845503 80.547443l0 0c-27.631746 13.689453-49.917743-0.325079-49.917743-31.243739l0 0c0-30.84642 22.285996-66.930229 49.917743-80.547443l0 0C748.079859 568.058131 770.365855 582.036543 770.365855 612.919083z"
          fill="#333333"/>
    <path d="M877.858765 438.243104c0 30.84642-22.285996 66.930229-49.917743 80.547443l0 0c-27.559506 13.653333-49.953862-0.361199-49.953862-31.171499l0 0c0-30.91866 22.394356-66.966349 49.953862-80.547443l0 0C855.572769 393.382152 877.858765 407.288325 877.858765 438.243104z"
          fill="#333333"/>
    <path d="M281.193651 548.481129c0 30.66582-21.924797 41.754638-48.834145 24.742152l0 0c-26.909347-17.084727-48.761905-55.841411-48.761905-86.579471l0 0c0-30.66582 21.852557-41.790758 48.761905-24.742152l0 0C259.268854 478.950265 281.193651 517.706949 281.193651 548.481129z"
          fill="#333333"/>
    <path d="M442.396896 833.322892c0 30.73806-21.816437 41.826878-48.834145 24.742152l0 0c-26.800988-17.156966-48.725785-55.913651-48.725785-86.615591l0 0c0-30.73806 21.924797-41.826878 48.725785-24.669912l0 0C420.580459 763.828148 442.396896 802.584832 442.396896 833.322892z"
          fill="#333333"/>
</svg>