<?xml version="1.0" standalone="no"?><!DOCTYPE svg PUBLIC "-//W3C//DTD SVG 1.1//EN"
        "http://www.w3.org/Graphics/SVG/1.1/DTD/svg11.dtd">
<svg class="icon" width="200px" height="200.00px" viewBox="0 0 1024 1024" version="1.1"
     xmlns="http://www.w3.org/2000/svg">
    <path d="M151.38816 971.24352l59.392-324.62848 179.2 43.02848-63.488 137.19552 115.712 8.192-19.456-226.304-236.544 15.36 2.048-149.504 634.88 35.84v71.68l-203.75552 13.29152-6.16448 64.512 166.912-14.336 2.048 149.504-179.2-15.36-6.144 66.56 279.552 19.456-63.50848 143.36-522.24-106.47552-43.008 94.208-96.23552-25.57952z m103.424-946.176l124.928-1.024 1.024 18.432 355.328-24.576 23.552 438.272h-177.152l3.072-24.576-367.616 13.312 36.864-419.84z m318.464 276.48l-181.26848-29.696 3.072 43.008 199.68 38.912 22.528-187.392-232.448-32.768 3.072 60.416 185.344-3.072v110.592z"/>
</svg>