<?xml version="1.0" standalone="no"?><!DOCTYPE svg PUBLIC "-//W3C//DTD SVG 1.1//EN"
        "http://www.w3.org/Graphics/SVG/1.1/DTD/svg11.dtd">
<svg class="icon" width="200px" height="200.00px" viewBox="0 0 1024 1024" version="1.1"
     xmlns="http://www.w3.org/2000/svg">
    <path d="M664.9 719.2H272.4c-13.2 0-23.9-10.7-23.9-23.8V229.1c0-13.1 10.7-23.8 23.9-23.8H665c13.2 0 23.9 10.7 23.9 23.8v466.3c-0.1 13.1-10.8 23.8-24 23.8"
          fill="#1395FD"/>
    <path d="M631.4 666.4H369.7l-73.4-73V276.3c0-5.3 4.3-9.5 9.6-9.5h325.5c5.3 0 9.6 4.3 9.6 9.5v380.6c0 5.3-4.3 9.5-9.6 9.5"
          fill="#CFECFE"/>
    <path d="M277.1 695.4V229.1c0-13.1 10.7-23.8 23.9-23.8h-28.7c-13.2 0-23.9 10.6-23.9 23.8v466.3c0 13.1 10.7 23.8 23.9 23.8H301c-13.1 0-23.9-10.7-23.9-23.8"
          fill="#6CC0FC"/>
    <path d="M660.1 229.1v466.3c0 13.1-10.7 23.8-23.9 23.8h28.7c13.2 0 23.9-10.6 23.9-23.8V229.1c0-13.1-10.7-23.8-23.9-23.8h-28.7c13.2 0 23.9 10.7 23.9 23.8"
          fill="#0A70BE"/>
    <path d="M491.3 462.5h-134c-5.3 0-9.6-4.3-9.6-9.5v-9.5c0-5.3 4.3-9.5 9.6-9.5h134c5.3 0 9.6 4.3 9.6 9.5v9.5c0 5.3-4.3 9.5-9.6 9.5M491.3 374.9h-134c-5.3 0-9.6-4.3-9.6-9.5v-9.5c0-5.3 4.3-9.5 9.6-9.5h134c5.3 0 9.6 4.3 9.6 9.5v9.5c0 5.2-4.3 9.5-9.6 9.5M562.5 550.2H357.2c-5.3 0-9.6-4.3-9.6-9.5v-9.5c0-5.3 4.3-9.5 9.6-9.5h205.2c5.3 0 9.6 4.3 9.6 9.5v9.5c0 5.2-4.3 9.5-9.5 9.5"
          fill="#FFFFFF"/>
    <path d="M360.1 593.5h-63.8l73.4 73V603c0-5.3-4.3-9.5-9.6-9.5" fill="#BCE5F7"/>
    <path d="M794.2 663.3c0 64.9-52.9 117.5-118.2 117.5s-118.2-52.6-118.2-117.5S610.7 545.8 676 545.8s118.2 52.6 118.2 117.5"
          fill="#9CD6FC"/>
    <path d="M658.6 716c-3.8 0-7.6-1.4-10.4-4.3l-41.8-41.5c-5.8-5.7-5.8-15 0-20.8 5.8-5.7 15.1-5.7 20.9 0l31.3 31.1 66.2-65.8c5.8-5.7 15.1-5.7 20.9 0 5.8 5.7 5.8 15 0 20.8L669 711.7c-2.9 2.9-6.7 4.3-10.4 4.3"
          fill="#0C4C8E"/>
</svg>