<?xml version="1.0" standalone="no"?><!DOCTYPE svg PUBLIC "-//W3C//DTD SVG 1.1//EN"
        "http://www.w3.org/Graphics/SVG/1.1/DTD/svg11.dtd">
<svg class="icon" width="200px" height="200.00px" viewBox="0 0 1024 1024" version="1.1"
     xmlns="http://www.w3.org/2000/svg">
    <path d="M312.61751312 420.98860322l-68.09781667 68.14303231 218.85606386 218.85606384 486.36957245-486.36957247-68.10064186-68.07520817-418.26893059 418.23219195L312.61751312 420.98860322zM901.08506003 513.42856683c0 213.97406935-175.04245953 389.05326755-389.05326756 389.05326754s-389.12674485-175.0791982-389.12674484-389.05326754c0-213.98113375 175.11593683-389.06033191 389.12674484-389.06033194 38.89486979 0 72.9473103 4.80851718 106.93051411 14.60783084l77.86463084-77.86745743c-58.34654523-19.45308668-121.60334387-34.05667971-184.79514495-34.05667971-267.51209603 0-486.36957248 218.85606384-486.36957246 486.37663824 0 267.51350863 218.85747644 486.36957248 486.36957246 486.36957247 267.44144531 0 486.30598612-218.85606384 486.30598614-486.36957247L901.08506003 513.42856683z"
          fill="#1296db"/>
</svg>