<?xml version="1.0" standalone="no"?><!DOCTYPE svg PUBLIC "-//W3C//DTD SVG 1.1//EN"
        "http://www.w3.org/Graphics/SVG/1.1/DTD/svg11.dtd">
<svg class="icon" width="200px" height="200.00px" viewBox="0 0 1024 1024" version="1.1"
     xmlns="http://www.w3.org/2000/svg">
    <path d="M512 0C229.495737 0 0.62363 229.121559 0.62363 512S229.495737 1024 512 1024s511.37637-229.121559 511.37637-512S794.379537 0 512 0z m-0.62363 986.706943C249.07771 986.582217 36.669428 773.67503 36.794153 511.37637c0.249452-262.173934 212.907186-474.706943 475.205847-474.582217 262.173934 0 474.706943 212.533009 474.706943 474.706943v0.62363c-0.124726 262.29866-213.031912 474.831669-475.330573 474.582217z"
          fill="#0DAAF6"/>
    <path d="M511.37637 750.850183c-207.793423 0-384.654811-238.850183-384.654811-238.850183S303.582948 273.149817 511.37637 273.149817c207.918149 0 385.777345 238.850183 385.777345 238.850183S719.294519 750.850183 511.37637 750.850183zM155.408526 513.247259c29.934227 37.043605 179.231181 214.902801 355.967844 214.902802s326.033618-177.983922 355.967844-214.902802c-29.934227-37.043605-179.231181-214.902801-355.967844-214.902801C334.514982 298.095006 185.218027 474.956395 155.408526 513.247259zM522.227527 693.476248c-100.279659 0-181.476248-81.19659-181.476248-181.476248S421.947868 330.523752 522.227527 330.523752s181.476248 81.19659 181.476249 181.476248S622.507186 693.476248 522.227527 693.476248z m0-342.746894c-89.553228 0-161.270646 72.839951-161.270645 161.270646 0 89.553228 72.839951 161.270646 161.270645 161.270646 89.553228 0 161.270646-72.839951 161.270646-161.270646s-71.842144-161.270646-161.270646-161.270646z m91.798295 130.213886c-23.947381 0-44.27771-19.083069-44.27771-44.27771 0-23.822655 19.083069-44.152984 44.27771-44.152984 23.822655 0 44.27771 19.083069 44.27771 44.152984-1.122533 24.072107-20.205603 44.27771-44.27771 44.27771z m0-78.826797c-19.083069 0-34.673812 15.590743-34.673812 34.673813s15.590743 34.673812 34.673812 34.673812 34.673812-15.590743 34.673813-34.673812c-1.122533-19.207795-16.713276-34.673812-34.673813-34.673813z m-91.798295 177.983922c-37.043605 0-66.853106-29.934227-66.853106-66.853106 0-37.043605 29.934227-66.853106 66.853106-66.853106s66.853106 29.934227 66.853106 66.853106-29.934227 66.853106-66.853106 66.853106z m0-125.474299c-32.179294 0-57.373934 26.317174-57.373934 57.373934 0 32.179294 26.317174 57.373934 57.373934 57.373934s57.373934-26.317174 57.373935-57.373934c-0.124726-31.05676-26.4419-57.373934-57.373935-57.373934z m0 0"
          fill="#0DAAF6"/>
</svg>