<?xml version="1.0" standalone="no"?><!DOCTYPE svg PUBLIC "-//W3C//DTD SVG 1.1//EN"
        "http://www.w3.org/Graphics/SVG/1.1/DTD/svg11.dtd">
<svg class="icon" width="200px" height="200.00px" viewBox="0 0 1024 1024" version="1.1"
     xmlns="http://www.w3.org/2000/svg">
    <path d="M631.3984 630.5024m-326.4 0a326.4 326.4 0 1 0 652.8 0 326.4 326.4 0 1 0-652.8 0Z" fill="#FFDC39"/>
    <path d="M673.4528 893.9904c-30.72 0-52.2304-6.144-62.4704-18.432-12.288-12.288-18.432-34.816-18.432-65.536a2016.7936 2016.7936 0 0 1 19.456-276.48 277.5424 277.5424 0 0 1 11.264-52.224c108.5504-4.096 189.44-7.168 241.6704-7.168a179.9168 179.9168 0 0 1 31.744 4.096 124.8576 124.8576 0 0 0 32.768 4.096c16.3904-1.024 25.6-10.24 25.6-28.6784 0-8.192-10.24-18.432-29.7024-30.72-18.432-10.24-30.72-16.384-38.912-16.384l-46.08 6.144c-32.768 3.072-112.64 8.192-238.5984 14.336-55.296 3.072-111.616 6.144-171.008 9.216 44.032-119.808 74.752-194.56 91.136-225.28a434.56 434.56 0 0 0 26.624-65.5424c92.16-6.144 164.8704-9.216 219.1424-9.216 12.288 0 32.768 1.024 61.44 2.048 36.864 0 56.32-8.192 57.344-23.552-1.024-11.264-9.216-22.528-25.6-34.816-18.432-9.216-31.744-14.336-41.984-14.336a22.0288 22.0288 0 0 0-10.24 2.048 58.88 58.88 0 0 1-21.504 4.096q-231.9424 15.36-390.1504 30.72c-107.52 10.24-166.9184 16.384-177.1584 16.384q-49.152 3.072-76.8 3.072a36.1472 36.1472 0 0 0-17.408 4.096 15.2128 15.2128 0 0 0-6.144 13.312c0 7.168 4.096 17.408 13.312 30.72 8.192 13.3184 17.408 19.4624 27.648 19.4624q9.216 0 86.016-12.2944c69.632-9.216 145.4144-17.408 225.28-25.6q-26.112 55.3024-67.584 168.96c-15.36 40.96-30.72 81.92-46.08 120.832-86.016 6.144-181.248 14.336-283.6544 25.6a7.9936 7.9936 0 0 0-8.192 8.192 56.9088 56.9088 0 0 0 13.312 32.768c7.168 14.336 15.36 20.48 25.6 20.48a214.7328 214.7328 0 0 0 41.984-4.096c13.312-2.048 30.72-5.12 51.2-9.216 40.96-6.144 87.04-11.264 138.24-16.384-13.312 32.768-26.624 66.56-38.912 99.328-34.816 87.04-58.368 148.48-72.704 183.3024-14.336 33.792-26.624 61.44-34.816 81.92-10.24 19.456-15.36 34.816-15.36 45.056 0 7.168 5.12 17.408 16.384 31.744q15.36 18.432 30.72 18.432a30.4448 30.4448 0 0 0 25.6-14.336q12.288-30.72 36.864-104.448c16.384-48.128 56.32-155.6544 117.76-323.5904a214.464 214.464 0 0 1 8.192-23.552c43.008-3.072 88.064-6.144 137.216-8.192l-2.048 28.672a2173.0752 2173.0752 0 0 0-20.48 285.7024c0 51.2 12.288 90.112 36.864 114.688s61.44 36.864 109.5744 36.864c98.304 0 186.368-17.408 262.144-50.176 14.3424-7.168 22.5344-15.36 22.5344-23.552a38.0544 38.0544 0 0 0-8.192-22.528 36.1664 36.1664 0 0 0-18.4384-11.264 76.8 76.8 0 0 0-20.48-2.048l-7.168 5.12c-79.8528 31.7504-155.6288 48.1344-228.3328 48.1344z"
          fill="#221101"/>
</svg>