<?xml version="1.0" standalone="no"?><!DOCTYPE svg PUBLIC "-//W3C//DTD SVG 1.1//EN"
        "http://www.w3.org/Graphics/SVG/1.1/DTD/svg11.dtd">
<svg class="icon" width="200px" height="200.00px" viewBox="0 0 1024 1024" version="1.1"
     xmlns="http://www.w3.org/2000/svg">
    <path d="M951.808 467.456h-88.064V243.712c0-6.144-2.048-11.776-6.656-16.384-1.536-1.024-3.584-3.584-7.168-6.656-6.144-6.144-12.8-11.776-18.944-17.92-19.456-18.432-39.424-36.864-57.856-54.272l-4.096-4.096c-25.088-23.04-45.568-41.472-60.928-54.784-9.216-7.68-15.872-13.312-21.504-17.408-3.584-2.56-6.144-4.608-9.216-5.632-3.584-1.536-6.656-2.56-11.264-2.56-12.288 0-22.016 10.24-22.016 23.04v201.728h176.128v179.2H204.288V109.056h373.76c12.288 0 22.016-10.24 22.016-22.528 0-12.288-9.728-22.528-22.016-22.528H160.256V466.944H72.192v380.416h88.064c0 61.952 49.152 111.616 110.08 111.616h593.92v-112.128H952.32V467.456z m-212.48-289.792l4.096 4.096c18.432 16.896 38.4 35.328 57.856 53.76 3.072 3.072 5.632 5.632 8.704 8.192h-121.856V131.584c13.824 11.776 30.72 27.648 51.2 46.08z m-154.624 348.16h95.744c28.16 0 50.176 7.168 66.56 22.016 16.384 14.848 24.576 34.304 24.576 58.88 0 25.088-8.192 44.544-24.064 58.368-15.872 13.824-38.4 20.992-67.584 20.992h-51.712v94.72h-43.52v-254.976z m-96.768 0h43.52v254.976h-43.52v-254.976z m-226.304 226.304l129.536-190.464H262.656v-35.84h181.248v28.16l-129.536 191.488h133.632v35.328H261.632v-28.672z m558.08 163.328H269.824c-36.352 0-66.048-29.696-66.048-67.072h615.936v67.072z"/>
    <path d="M715.776 639.488c8.192-7.168 12.288-17.92 12.288-32.256 0-13.824-4.096-24.576-12.288-32.768-8.192-8.192-19.456-12.288-33.792-12.8h-53.248v89.088H680.96c14.848 0 26.624-4.096 34.816-11.264z"/>
</svg>