<?xml version="1.0" encoding="UTF-8"?>
<svg width="79px" height="79px" viewBox="0 0 79 79" version="1.1" xmlns="http://www.w3.org/2000/svg"
     xmlns:xlink="http://www.w3.org/1999/xlink" style="background: #C3A7A7;">
    <!-- Generator: Sketch 52.2 (67145) - http://www.bohemiancoding.com/sketch -->
    <title>前车轮</title>
    <desc>Created with Sketch.</desc>
    <g id="组件" stroke="none" stroke-width="1" fill="none" fill-rule="evenodd">
        <g id="前车轮">
            <g>
                <g>
                    <path d="M39.034786,2.50812747 C52.0855513,2.507217 64.1453453,9.46919449 70.6709908,20.7713371 C77.1966363,32.0734797 77.1966363,45.9985564 70.6709908,57.300699 C64.1453453,68.6028416 52.0855513,75.5648191 39.034786,75.5639086 L39.034786,78.0444444 C60.5775166,78.0429901 78.040579,60.5787487 78.040579,39.036018 C78.040579,17.4932874 60.5775166,0.0290459655 39.034786,0.0275916444 L39.034786,2.50812747 Z M0.0263596444,39.036018 C0.0263596444,60.579777 17.491027,78.0444443 39.034786,78.0444444 L39.034786,75.5639086 C25.9840206,75.5648191 13.9242266,68.6028416 7.39858111,57.300699 C0.87293561,45.9985564 0.87293561,32.0734797 7.39858111,20.7713371 C13.9242266,9.46919449 25.9840206,2.507217 39.034786,2.50812747 L39.034786,0.0275916444 C17.491027,0.0275917426 0.0263597426,17.492259 0.0263596444,39.036018 Z"
                          id="形状" fill="#5E413A" fill-rule="nonzero"></path>
                    <g id="前车径" transform="translate(2.000000, 2.000000)" fill="#FCE7E8" fill-rule="evenodd">
                        <polygon id="路径"
                                 points="34.0341378 74.0440123 34.854315 74.0440123 34.854315 0.0280236444 34.0341378 0.0280236444 34.0341378 74.0440123"></polygon>
                        <polygon id="路径"
                                 points="40.0354341 74.0440123 40.8556114 74.0440123 40.8556114 0.0280236444 40.0354341 0.0280236444 40.0354341 74.0440123"></polygon>
                        <polygon id="路径"
                                 points="46.0367307 2.288512 45.3965924 2.02845582 22.0315451 71.7835241 22.6716834 72.0435803"></polygon>
                        <polygon id="路径"
                                 points="54.038459 2.288512 53.3383079 2.02845582 28.0328414 71.7835241 28.7329927 72.0435803"></polygon>
                        <polygon id="路径"
                                 points="60.0397554 6.48941956 59.4796345 6.02932 12.0293845 61.5813202 12.5895054 62.0414196"></polygon>
                        <polygon id="路径"
                                 points="64.0406197 12.4907159 63.4804987 12.0306165 16.0302487 67.5826165 16.5903698 68.0427159"></polygon>
                        <polygon id="路径"
                                 points="68.0414839 16.671619 67.6814062 16.0314807 6.02808818 53.3995527 6.38816587 54.039691"></polygon>
                        <polygon id="路径"
                                 points="70.0419161 22.6729154 69.6818382 22.0327771 8.02852018 59.4008492 8.38859804 60.0409874"></polygon>
                        <polygon id="路径"
                                 points="70.0419161 28.6742117 69.9218901 28.0340734 0.0267916444 39.396528 0.1468176 40.0366661"></polygon>
                        <polygon id="路径"
                                 points="74.0427803 32.6750759 73.9227545 32.0349378 4.027656 43.3973922 4.14768196 44.0375305"></polygon>
                        <polygon id="路径"
                                 points="73.9227545 40.0366661 74.0427803 39.396528 4.14768196 28.0340734 4.027656 28.6742117"></polygon>
                        <polygon id="路径"
                                 points="69.9218901 44.0375305 70.0419161 43.3973922 0.1468176 32.0349378 0.0267916444 32.6750759"></polygon>
                        <polygon id="路径"
                                 points="69.6818382 54.039691 70.0419161 53.3995527 8.38859804 16.0314807 8.02852018 16.671619"></polygon>
                        <polygon id="路径"
                                 points="67.6814062 60.0409874 68.0414839 59.4008492 6.38816587 22.0327771 6.02808818 22.6729154"></polygon>
                        <polygon id="路径"
                                 points="63.4804987 62.0414196 64.0406197 61.5813202 16.5903698 6.02932 16.0302487 6.48941956"></polygon>
                        <polygon id="路径"
                                 points="59.4796345 68.0427159 60.0397554 67.5826165 12.5895054 12.0306165 12.0293845 12.4907159"></polygon>
                        <polygon id="路径"
                                 points="53.3383079 72.0435803 54.038459 71.7835241 28.7329927 2.02845582 28.0328414 2.288512"></polygon>
                        <polygon id="路径"
                                 points="45.3965924 72.0435803 46.0367307 71.7835241 22.6716834 2.02845582 22.0315451 2.288512"></polygon>
                    </g>
                </g>
            </g>
            <g id="心" transform="translate(36.000000, 36.000000)" fill="#5E413A">
                <path d="M3.03478596,6.03666613 C1.37757373,6.03666613 0.0341377778,4.69323018 0.0341377778,3.03601796 C0.0341377778,1.37880573 1.37757373,0.0353697778 3.03478596,0.0353697778 C4.69199818,0.0353697778 6.03543413,1.37880573 6.03543413,3.03601796 C6.03543413,4.69323018 4.69199818,6.03666613 3.03478596,6.03666613"
                      id="路径"></path>
            </g>
        </g>
    </g>
</svg>