<?xml version="1.0" encoding="UTF-8"?>
<svg width="78px" height="79px" viewBox="0 0 78 79" version="1.1" xmlns="http://www.w3.org/2000/svg"
     xmlns:xlink="http://www.w3.org/1999/xlink" style="background: #DBD2D2;">
    <!-- Generator: Sketch 52.2 (67145) - http://www.bohemiancoding.com/sketch -->
    <title>后车轮</title>
    <desc>Created with Sketch.</desc>
    <g id="组件" stroke="none" stroke-width="1" fill="none" fill-rule="evenodd">
        <g id="后车轮">
            <g>
                <path d="M39.0084265,2.50812747 C59.1812282,2.50953479 75.5337689,18.8632163 75.5337689,39.036018 C75.5337689,59.2088198 59.1812282,75.5625013 39.0084265,75.5639086 L39.0084265,78.0444444 C60.5511571,78.0429901 78.0142196,60.5787487 78.0142196,39.036018 C78.0142196,17.4932874 60.5511571,0.0290459655 39.0084265,0.0275916444 L39.0084265,2.50812747 Z M0,39.036018 C2.63834956e-15,60.579777 17.4646674,78.0444444 39.0084265,78.0444444 L39.0084265,75.5639086 C18.8356247,75.5625013 2.48308413,59.2088198 2.48308413,39.036018 C2.48308413,18.8632163 18.8356247,2.50953479 39.0084265,2.50812747 L39.0084265,0.0275916444 C17.4646675,0.0275916444 9.81839655e-08,17.492259 0,39.036018 Z"
                      id="形状" fill="#5E413A" fill-rule="nonzero"></path>
                <g id="后车径" transform="translate(2.000000, 2.000000)" fill="#FCE7E8" fill-rule="evenodd">
                    <polygon id="路径"
                             points="34.0077783 74.0440123 34.8279554 74.0440123 34.8279554 0.0280236444 34.0077783 0.0280236444 34.0077783 74.0440123"></polygon>
                    <polygon id="路径"
                             points="40.0090747 74.0440123 40.8292517 74.0440123 40.8292517 0.0280236444 40.0090747 0.0280236444 40.0090747 74.0440123"></polygon>
                    <polygon id="路径"
                             points="46.010371 2.288512 45.3102197 2.02845582 20.0047534 71.7835241 20.7049045 72.0435803"></polygon>
                    <polygon id="路径"
                             points="52.0116674 2.288512 51.3715291 2.02845582 28.006482 71.7835241 28.6466201 72.0435803"></polygon>
                    <polygon id="路径"
                             points="58.0129637 6.48941956 57.4528427 6.02932 10.0025927 61.5813202 10.5627138 62.0414196"></polygon>
                    <polygon id="路径"
                             points="62.0138279 12.4907159 61.453707 12.0306165 14.0034571 67.5826165 14.563578 68.0427159"></polygon>
                    <polygon id="路径"
                             points="66.0146923 16.671619 65.6546144 16.0314807 4.00129636 53.3995527 4.36137422 54.039691"></polygon>
                    <polygon id="路径"
                             points="68.0151244 22.6729154 67.6550466 22.0327771 6.00172853 59.4008492 6.36180622 60.0409874"></polygon>
                    <polygon id="路径"
                             points="70.0155564 28.6742117 69.8955305 28.0340734 0.000432177778 39.396528 0.120458133 40.0366661"></polygon>
                    <polygon id="路径"
                             points="72.0159886 32.6750759 71.8959627 32.0349378 2.00086418 43.3973922 2.12089013 44.0375305"></polygon>
                    <polygon id="路径"
                             points="71.8959627 40.0366661 72.0159886 39.396528 2.12089013 28.0340734 2.00086418 28.6742117"></polygon>
                    <polygon id="路径"
                             points="69.8955305 44.0375305 70.0155564 43.3973922 0.120458133 32.0349378 0.000432177778 32.6750759"></polygon>
                    <polygon id="路径"
                             points="67.6550466 54.039691 68.0151244 53.3995527 6.36180622 16.0314807 6.00172853 16.671619"></polygon>
                    <polygon id="路径"
                             points="65.6546144 60.0409874 66.0146923 59.4008492 4.36137422 22.0327771 4.00129636 22.6729154"></polygon>
                    <polygon id="路径"
                             points="61.453707 62.0414196 62.0138279 61.5813202 14.563578 6.02932 14.0034571 6.48941956"></polygon>
                    <polygon id="路径"
                             points="57.4528427 68.0427159 58.0129637 67.5826165 10.5627138 12.0306165 10.0025927 12.4907159"></polygon>
                    <polygon id="路径"
                             points="51.3715291 72.0435803 52.0116674 71.7835241 28.6466201 2.02845582 28.006482 2.288512"></polygon>
                    <polygon id="路径"
                             points="45.3102197 72.0435803 46.010371 71.7835241 20.7049045 2.02845582 20.0047534 2.288512"></polygon>
                </g>
            </g>
            <path d="M38.0082103,46.0375305 C34.7718132,46.0375305 31.8540926,44.0879719 30.6155771,41.0979309 C29.3770615,38.1078899 30.0616555,34.6662038 32.3501338,32.3777254 C34.6386121,30.0892471 38.0802982,29.4046532 41.0703393,30.6431687 C44.0603803,31.8816843 46.0099388,34.7994049 46.0099388,38.035802 C46.0099388,42.4550346 42.427443,46.0375305 38.0082103,46.0375305"
                  id="路径" fill="#5E413A"></path>
        </g>
    </g>
</svg>