<?xml version="1.0" encoding="UTF-8"?>
<svg width="126px" height="83px" viewBox="0 0 126 83" version="1.1" xmlns="http://www.w3.org/2000/svg"
     xmlns:xlink="http://www.w3.org/1999/xlink" style="background: #F0E5E5;">
    <!-- Generator: Sketch 52.2 (67145) - http://www.bohemiancoding.com/sketch -->
    <title>车架</title>
    <desc>Created with Sketch.</desc>
    <g id="组件" stroke="none" stroke-width="1" fill="none" fill-rule="evenodd">
        <g id="车架">
            <polygon id="路径" fill="#DDD3A8"
                     points="36.0559973 18.0241346 32.0151244 18.0241346 49.9790048 80.0375305 54.0198777 80.0375305"></polygon>
            <polygon id="路径" fill="#DDD3A8"
                     points="29.8546576 2.02067751 28.0142601 2.02067751 36.1760231 34.0275916 38.0164208 34.0275916"></polygon>
            <polygon id="路径" fill="#DDD3A8"
                     points="106.012532 25.7007995 103.952086 22 48 78.3121644 50.060445 82.0129637"></polygon>
            <polygon id="路径" fill="#DDD3A8"
                     points="34.0155564 22.0249988 106.031113 22.0249988 106.031113 20.0245668 34.0155564 20.0245668"></polygon>
            <path d="M102.030249,10.4825054 L120.534246,72.035802 L124.53511,72.035802 L106.971316,13.1430802 C106.884927,12.8279364 106.948684,12.4905633 107.14412,12.2286789 C107.339556,11.9667946 107.644834,11.809661 107.971532,11.8027908 L117.553602,11.8027908 C120.101207,11.9668111 122.083615,14.0809547 122.083615,16.6338343 C122.083615,19.1867139 120.101207,21.3008576 117.553602,21.4648779 L112.4525,21.4648779 C111.483452,21.5646944 110.746811,22.3811107 110.746811,23.3552862 C110.746811,24.3294618 111.483452,25.145878 112.4525,25.2456946 L117.653624,25.2456946 C122.248607,25.0241695 125.860307,21.2341544 125.860307,16.6338343 C125.860307,12.0335142 122.248607,8.24349909 117.653624,8.02197404 L103.790629,8.02197404 C103.187061,8.01289412 102.617409,8.30037358 102.266175,8.79130318 C101.914941,9.28223278 101.826781,9.91419365 102.030249,10.4825054"
                  id="路径" fill="#DDD3A8"></path>
            <path d="M43.7976695,0.0202455111 L16.0116674,0.0202455111 C13.3110841,0.0202455111 13.9112137,1.36053511 15.0714642,2.44076836 L18.4521945,5.60145102 C20.1925705,7.24180533 29.8546576,3.60101884 34.3156213,3.60101902 L43.7176523,3.60101902 C46.7783134,3.60101902 46.9383479,0.0602542222 43.8776869,0.0602540444"
                  id="路径" fill="#5E413A"></path>
            <polygon id="路径" fill="#DDD3A8"
                     points="54.0198777 82.0379625 0.00821031111 75.336515 0.00821031111 72.035802 54.0198777 78.7372496"></polygon>
            <polygon id="路径" fill="#DDD3A8"
                     points="38.0164208 21.4048649 2.94884551 76.0366661 0.00821031111 74.656368 35.0757856 20.0245668 38.0164208 21.4048649"></polygon>
        </g>
    </g>
</svg>