<?xml version="1.0" encoding="UTF-8"?>
<svg width="27px" height="21px" viewBox="0 0 27 21" version="1.1" xmlns="http://www.w3.org/2000/svg"
     xmlns:xlink="http://www.w3.org/1999/xlink" style="background: #E5DADA;">
    <!-- Generator: Sketch 52.2 (67145) - http://www.bohemiancoding.com/sketch -->
    <title>轴</title>
    <desc>Created with Sketch.</desc>
    <g id="组件" stroke="none" stroke-width="1" fill="none" fill-rule="evenodd">
        <g id="轴" fill="#5E413A">
            <g fill-rule="nonzero" id="形状">
                <path d="M7.11881902,0.0349377778 L0.917479467,0.0349377778 C0.394906388,0.067163624 -0.00552290551,0.512085017 0.0172849778,1.03515378 C0.000909111064,1.28792933 0.0872213838,1.53661893 0.256673803,1.72489937 C0.426126223,1.91317982 0.664381449,2.02512074 0.917479467,2.03536978 L7.11881902,2.03536978 C7.37191704,2.02512074 7.61017227,1.91317982 7.77962469,1.72489937 C7.94907711,1.53661893 8.03538938,1.28792933 8.01901351,1.03515378 C8.04182139,0.512085017 7.6413921,0.067163624 7.11881902,0.0349377778 Z M3.15796338,2.03536978 L2.01771716,2.03536978 L10.8796315,10.0370983 L12.0198777,10.0370983 L3.15796338,2.03536978 Z"></path>
            </g>
            <path d="M25.1227081,18.0388268 L18.9213685,18.0388268 C18.6682705,18.0490759 18.4300153,18.1610168 18.2605629,18.3492972 C18.0911105,18.5375777 18.0047982,18.7862673 18.021174,19.0390428 C17.9983661,19.5621117 18.3987954,20.0070332 18.9213685,20.039259 L25.1227081,20.039259 C25.6452812,20.0070332 26.0457106,19.5621117 26.0229026,19.0390428 C26.0392784,18.7862673 25.9529662,18.5375777 25.7835138,18.3492972 C25.6140613,18.1610168 25.3758061,18.0490759 25.1227081,18.0388268"
                  id="路径"></path>
            <path d="M12.0198777,2.03536978 C16.4391103,2.03536978 20.0216062,5.61786567 20.0216062,10.0370983 C20.0216062,14.456331 16.4391103,18.0388268 12.0198777,18.0388268 L12.0198777,16.9986021 C15.8867062,16.9986021 19.0213901,13.8639182 19.0213901,9.99708969 C19.0213901,6.13026114 15.8867062,2.99557724 12.0198777,2.99557724 L12.0198777,2.03536978 Z M5.05837387,10.0370983 C5.05837387,13.8818307 8.17514529,16.9986021 12.0198777,16.9986021 L12.0198777,18.0388268 C7.60064505,18.0388268 4.01814916,14.456331 4.01814916,10.0370983 C4.01814916,5.61786567 7.60064505,2.03536978 12.0198777,2.03536978 L12.0198777,3.09559893 C10.175414,3.09028347 8.40467299,3.81927066 7.09855955,5.12163088 C5.79244611,6.4239911 5.05836625,8.19262699 5.05837387,10.0370983 Z"
                  id="形状" fill-rule="nonzero"></path>
        </g>
    </g>
</svg>